<?xml version="1.0" encoding="utf-8"?>
<!-- Generator: Adobe Illustrator 18.1.1, SVG Export Plug-In . SVG Version: 6.00 Build 0)  -->
<svg version="1.1" id="Layer_1" xmlns="http://www.w3.org/2000/svg" xmlns:xlink="http://www.w3.org/1999/xlink" x="0px" y="0px"
	 viewBox="0 0 86.7 47.1" enable-background="new 0 0 86.7 47.1" xml:space="preserve">
<path fill="#188287" d="M54.6,27.1l11.6-13.6l0.4,13.1L54.6,27.1z M66.8,47.1h13.9v-9.6h6.1V26.7h-6.1L80.4,0.2H66.9L45.7,25.5v12.6
	h21.1L66.8,47.1z"/>
<path fill="#188287" d="M13.6,20.1H1.2c0,0-0.3-9.1,3.5-13.1c3.8-4.1,8.2-7.4,17.9-7.1C32.4,0.1,39.4,5.1,40.1,12
	c0.7,7.5,0,12.4-11.2,18.8c-11.2,6.4-8.6,5.5-8.6,5.5l21.1,0v11H0c0,0,0.6-7.6,3.9-11.4C10,29,21.8,22.8,25.1,20
	c2.9-2.5,1.9-9.6-3.8-9.3c-7.5,0.4-7.1,5.5-7.3,9.2"/>
<path fill="#188287" d="M84.8-7c1.1,0,1.9,0.9,1.9,1.9c0,1.1-0.9,1.9-1.9,1.9c-1.1,0-1.9-0.8-1.9-1.9C82.8-6.1,83.7-7,84.8-7L84.8-7
	z M84.8-6.7c-0.9,0-1.6,0.7-1.6,1.6c0,0.9,0.7,1.6,1.6,1.6c0.9,0,1.6-0.7,1.6-1.6S85.7-6.7,84.8-6.7L84.8-6.7z M84.4-3.9h-0.3v-2.2
	c0.2,0,0.4-0.1,0.6-0.1c0.3,0,0.5,0.1,0.7,0.2c0.1,0.1,0.2,0.2,0.2,0.4c0,0.3-0.2,0.5-0.4,0.5v0c0.2,0,0.3,0.2,0.4,0.5
	c0.1,0.3,0.1,0.5,0.1,0.5h-0.4c-0.1-0.1-0.1-0.3-0.1-0.5c-0.1-0.3-0.2-0.4-0.5-0.4h-0.2V-3.9z M84.4-5.1h0.3c0.3,0,0.5-0.1,0.5-0.4
	c0-0.2-0.1-0.4-0.5-0.4c-0.1,0-0.2,0-0.3,0V-5.1z"/>
</svg>
