<?xml version="1.0" encoding="utf-8"?>
<!-- Generator: Adobe Illustrator 18.1.1, SVG Export Plug-In . SVG Version: 6.00 Build 0)  -->
<svg version="1.1" id="Layer_1" xmlns="http://www.w3.org/2000/svg" xmlns:xlink="http://www.w3.org/1999/xlink" x="0px" y="0px"
	 viewBox="0 0 595.3 841.9" enable-background="new 0 0 595.3 841.9" xml:space="preserve">
<g opacity="0.56">
	<path fill="#E9E8F3" d="M69.9,38c0-0.6,0.5-1.1,1.1-1.1c0.6,0,1.1,0.5,1.1,1.1c0,0.6-0.5,1.1-1.1,1.1C70.4,39,69.9,38.5,69.9,38
		L69.9,38z"/>
	<path fill="#E9E8F3" d="M71.6,36.2c0-0.6,0.5-1.1,1.1-1.1c0.6,0,1.1,0.5,1.1,1.1c0,0.6-0.5,1.1-1.1,1.1
		C72.1,37.3,71.6,36.8,71.6,36.2L71.6,36.2z"/>
	<path fill="#E9E8F3" d="M75,36.2c0-0.6,0.5-1.1,1.1-1.1c0.6,0,1.1,0.5,1.1,1.1c0,0.6-0.5,1.1-1.1,1.1C75.5,37.3,75,36.8,75,36.2
		L75,36.2z"/>
	<path fill="#E9E8F3" d="M73.3,38c0-0.6,0.5-1.1,1.1-1.1c0.6,0,1.1,0.5,1.1,1.1c0,0.6-0.5,1.1-1.1,1.1C73.8,39,73.3,38.5,73.3,38
		L73.3,38z"/>
	<path fill="#E9E8F3" d="M93.8,31.1c0-0.5,0.4-1,1-1c0.5,0,1,0.4,1,1c0,0.5-0.4,1-1,1C94.3,32.1,93.8,31.7,93.8,31.1L93.8,31.1z"/>
	<path fill="#E9E8F3" d="M78.4,36.2c0-0.6,0.5-1.1,1.1-1.1c0.6,0,1.1,0.5,1.1,1.1c0,0.6-0.5,1.1-1.1,1.1
		C78.9,37.3,78.4,36.8,78.4,36.2L78.4,36.2z"/>
	<path fill="#E9E8F3" d="M80,37.9c0-0.6,0.5-1.2,1.2-1.2c0.6,0,1.2,0.5,1.2,1.2c0,0.6-0.5,1.2-1.2,1.2C80.5,39.1,80,38.6,80,37.9
		L80,37.9z"/>
	<path fill="#E9E8F3" d="M81.7,36.2c0-0.6,0.5-1.2,1.1-1.2c0.6,0,1.1,0.5,1.1,1.2c0,0.6-0.5,1.1-1.1,1.1
		C82.2,37.3,81.7,36.8,81.7,36.2L81.7,36.2z"/>
	<path fill="#E9E8F3" d="M83.5,38c0-0.6,0.5-1.1,1.1-1.1c0.6,0,1.1,0.5,1.1,1.1c0,0.6-0.5,1.1-1.1,1.1C84,39,83.5,38.5,83.5,38
		L83.5,38z"/>
	<path fill="#E9E8F3" d="M78.4,39.6c0-0.6,0.5-1,1-1c0.6,0,1,0.5,1,1c0,0.6-0.5,1-1,1C78.9,40.7,78.4,40.2,78.4,39.6L78.4,39.6z"/>
	<path fill="#E9E8F3" d="M85.3,39.6c0-0.6,0.5-1,1-1c0.6,0,1,0.5,1,1c0,0.6-0.5,1-1,1C85.7,40.7,85.3,40.2,85.3,39.6L85.3,39.6z"/>
	<path fill="#E9E8F3" d="M88.7,39.6c0-0.6,0.5-1,1-1c0.6,0,1,0.5,1,1c0,0.6-0.5,1-1,1C89.2,40.7,88.7,40.2,88.7,39.6L88.7,39.6z"/>
	<path fill="#E9E8F3" d="M86.8,38c0-0.6,0.5-1.1,1.1-1.1s1.1,0.5,1.1,1.1c0,0.6-0.5,1.1-1.1,1.1S86.8,38.6,86.8,38L86.8,38z"/>
	<path fill="#E9E8F3" d="M85.1,36.2c0-0.6,0.5-1.2,1.2-1.2s1.2,0.5,1.2,1.2c0,0.6-0.5,1.2-1.2,1.2S85.1,36.9,85.1,36.2L85.1,36.2z"
		/>
	<path fill="#E9E8F3" d="M86.8,34.5c0-0.6,0.5-1.2,1.2-1.2c0.6,0,1.2,0.5,1.2,1.2c0,0.6-0.5,1.2-1.2,1.2
		C87.3,35.6,86.8,35.1,86.8,34.5L86.8,34.5z"/>
	<path fill="#E9E8F3" d="M88.5,36.3c0-0.6,0.5-1.2,1.2-1.2s1.2,0.5,1.2,1.2c0,0.6-0.5,1.2-1.2,1.2S88.5,36.9,88.5,36.3L88.5,36.3z"
		/>
	<path fill="#E9E8F3" d="M90.3,37.9c0-0.6,0.5-1.1,1.1-1.1c0.6,0,1.1,0.5,1.1,1.1c0,0.6-0.5,1.1-1.1,1.1
		C90.8,39,90.3,38.5,90.3,37.9L90.3,37.9z"/>
	<path fill="#E9E8F3" d="M93.7,37.9c0-0.6,0.5-1.1,1.1-1.1c0.6,0,1.1,0.5,1.1,1.1c0,0.6-0.5,1.1-1.1,1.1
		C94.2,39,93.7,38.5,93.7,37.9L93.7,37.9z"/>
	<path fill="#E9E8F3" d="M95.4,36.3c0-0.6,0.5-1,1-1c0.6,0,1,0.5,1,1c0,0.6-0.5,1-1,1C95.9,37.3,95.4,36.8,95.4,36.3L95.4,36.3z"/>
	<path fill="#E9E8F3" d="M83.5,34.5c0-0.6,0.5-1.1,1-1.1c0.6,0,1,0.5,1,1.1c0,0.6-0.5,1.1-1,1.1C84,35.5,83.5,35.1,83.5,34.5
		L83.5,34.5z"/>
	<path fill="#E9E8F3" d="M88.7,32.8c0-0.6,0.5-1,1-1c0.6,0,1,0.5,1,1c0,0.6-0.5,1-1,1C89.1,33.9,88.7,33.4,88.7,32.8L88.7,32.8z"/>
	<path fill="#E9E8F3" d="M92,32.8c0-0.6,0.5-1,1-1c0.6,0,1,0.5,1,1c0,0.6-0.5,1-1,1C92.5,33.9,92,33.4,92,32.8L92,32.8z"/>
	<path fill="#E9E8F3" d="M95.4,32.8c0-0.6,0.5-1.1,1.1-1.1c0.6,0,1.1,0.5,1.1,1.1c0,0.6-0.5,1.1-1.1,1.1
		C95.9,33.9,95.4,33.4,95.4,32.8L95.4,32.8z"/>
	<path fill="#E9E8F3" d="M93.6,34.6c0-0.6,0.5-1.1,1.1-1.1c0.6,0,1.1,0.5,1.1,1.1c0,0.6-0.5,1.1-1.1,1.1
		C94.1,35.7,93.6,35.2,93.6,34.6L93.6,34.6z"/>
	<path fill="#E9E8F3" d="M92,36.2c0-0.6,0.5-1.1,1.1-1.1c0.6,0,1.1,0.5,1.1,1.1c0,0.6-0.5,1.1-1.1,1.1C92.5,37.3,92,36.8,92,36.2
		L92,36.2z"/>
	<path fill="#E9E8F3" d="M73.6,34.5c0-0.4,0.4-0.8,0.8-0.8c0.4,0,0.8,0.4,0.8,0.8c0,0.4-0.4,0.8-0.8,0.8
		C73.9,35.3,73.6,35,73.6,34.5L73.6,34.5z"/>
	<path fill="#E9E8F3" d="M76.9,34.5c0-0.5,0.4-0.9,0.9-0.9c0.5,0,0.9,0.4,0.9,0.9c0,0.5-0.4,0.9-0.9,0.9
		C77.3,35.4,76.9,35,76.9,34.5L76.9,34.5z"/>
	<path fill="#E9E8F3" d="M80.3,34.5c0-0.5,0.4-0.9,0.9-0.9c0.5,0,0.9,0.4,0.9,0.9c0,0.5-0.4,0.9-0.9,0.9
		C80.7,35.4,80.3,35,80.3,34.5L80.3,34.5z"/>
	<path fill="#E9E8F3" d="M70.3,34.5c0-0.4,0.3-0.7,0.7-0.7c0.4,0,0.7,0.3,0.7,0.7c0,0.4-0.3,0.7-0.7,0.7
		C70.6,35.2,70.3,34.9,70.3,34.5L70.3,34.5z"/>
	<path fill="#E9E8F3" d="M68.5,36.2c0-0.4,0.3-0.7,0.7-0.7c0.4,0,0.7,0.3,0.7,0.7c0,0.4-0.3,0.7-0.7,0.7
		C68.9,37,68.5,36.6,68.5,36.2L68.5,36.2z"/>
	<path fill="#E9E8F3" d="M68.5,39.7c0-0.4,0.3-0.7,0.7-0.7c0.4,0,0.7,0.3,0.7,0.7c0,0.4-0.3,0.7-0.7,0.7
		C68.8,40.4,68.5,40.1,68.5,39.7L68.5,39.7z"/>
	<path fill="#E9E8F3" d="M71.9,39.6c0-0.4,0.3-0.7,0.7-0.7c0.4,0,0.7,0.3,0.7,0.7c0,0.4-0.3,0.7-0.7,0.7
		C72.3,40.4,71.9,40,71.9,39.6L71.9,39.6z"/>
	<path fill="#E9E8F3" d="M87.3,41.3c0-0.4,0.3-0.7,0.7-0.7c0.4,0,0.7,0.3,0.7,0.7c0,0.4-0.3,0.7-0.7,0.7
		C87.6,42.1,87.3,41.7,87.3,41.3L87.3,41.3z"/>
	<path fill="#E9E8F3" d="M90.3,34.5c0-0.6,0.5-1.2,1.2-1.2c0.6,0,1.2,0.5,1.2,1.2s-0.5,1.2-1.2,1.2C90.8,35.7,90.3,35.2,90.3,34.5
		L90.3,34.5z"/>
	<path fill="#E9E8F3" d="M97.2,31.2c0-0.5,0.4-1,1-1c0.5,0,1,0.4,1,1c0,0.5-0.4,1-1,1C97.6,32.1,97.2,31.7,97.2,31.2L97.2,31.2z"/>
	<path fill="#E9E8F3" d="M97.3,34.5c0-0.5,0.4-1,1-1c0.5,0,1,0.4,1,1c0,0.5-0.4,1-1,1C97.7,35.5,97.3,35,97.3,34.5L97.3,34.5z"/>
	<path fill="#E9E8F3" d="M76.6,38c0-0.7,0.5-1.2,1.2-1.2c0.7,0,1.2,0.5,1.2,1.2s-0.5,1.2-1.2,1.2C77.2,39.2,76.6,38.6,76.6,38
		L76.6,38z"/>
	<path fill="#E9E8F3" d="M85.3,32.8c0-0.5,0.4-0.9,0.9-0.9c0.5,0,0.9,0.4,0.9,0.9c0,0.5-0.4,0.9-0.9,0.9
		C85.7,33.8,85.3,33.4,85.3,32.8L85.3,32.8z"/>
	<path fill="#E9E8F3" d="M90.5,31.1c0-0.5,0.4-0.9,0.9-0.9c0.5,0,0.9,0.4,0.9,0.9c0,0.5-0.4,0.9-0.9,0.9
		C90.9,32.1,90.5,31.6,90.5,31.1L90.5,31.1z"/>
	<path fill="#E9E8F3" d="M92.2,39.6c0-0.5,0.4-0.9,0.9-0.9c0.5,0,0.9,0.4,0.9,0.9c0,0.5-0.4,0.9-0.9,0.9
		C92.6,40.5,92.2,40.1,92.2,39.6L92.2,39.6z"/>
	<path fill="#E9E8F3" d="M99,32.8c0-0.5,0.4-0.9,0.9-0.9c0.5,0,0.9,0.4,0.9,0.9c0,0.5-0.4,0.9-0.9,0.9C99.4,33.8,99,33.4,99,32.8
		L99,32.8z"/>
	<path fill="#E9E8F3" d="M82,39.6c0-0.5,0.4-0.9,0.9-0.9s0.9,0.4,0.9,0.9c0,0.5-0.4,0.9-0.9,0.9S82,40.1,82,39.6L82,39.6z"/>
	<path fill="#E9E8F3" d="M75.2,39.6c0-0.5,0.4-0.9,0.9-0.9c0.5,0,0.9,0.4,0.9,0.9c0,0.5-0.4,0.9-0.9,0.9
		C75.6,40.5,75.2,40.1,75.2,39.6L75.2,39.6z"/>
	<path fill="#E9E8F3" d="M90.5,41.3c0-0.5,0.4-0.9,0.9-0.9s0.9,0.4,0.9,0.9c0,0.5-0.4,0.9-0.9,0.9S90.5,41.8,90.5,41.3L90.5,41.3z"
		/>
	<path fill="#E9E8F3" d="M80.5,41.5c0-0.5,0.4-0.8,0.8-0.8c0.4,0,0.8,0.4,0.8,0.8c0,0.5-0.4,0.8-0.8,0.8
		C80.8,42.3,80.5,42,80.5,41.5L80.5,41.5z"/>
	<path fill="#E9E8F3" d="M83.9,41.4c0-0.3,0.3-0.6,0.6-0.6c0.3,0,0.6,0.3,0.6,0.6c0,0.3-0.3,0.6-0.6,0.6
		C84.2,42,83.9,41.7,83.9,41.4L83.9,41.4z"/>
	<path fill="#E9E8F3" d="M77.1,41.3c0-0.3,0.3-0.6,0.6-0.6c0.3,0,0.6,0.3,0.6,0.6c0,0.3-0.3,0.6-0.6,0.6
		C77.4,41.9,77.1,41.7,77.1,41.3L77.1,41.3z"/>
	<path fill="#E9E8F3" d="M73.8,41.3c0-0.3,0.3-0.6,0.6-0.6c0.3,0,0.6,0.3,0.6,0.6c0,0.3-0.3,0.6-0.6,0.6
		C74,41.9,73.8,41.7,73.8,41.3L73.8,41.3z"/>
	<path fill="#E9E8F3" d="M70.5,41.4c0-0.3,0.2-0.5,0.5-0.5c0.3,0,0.5,0.2,0.5,0.5c0,0.3-0.2,0.5-0.5,0.5
		C70.7,41.9,70.5,41.7,70.5,41.4L70.5,41.4z"/>
	<path fill="#E9E8F3" d="M82.2,32.9c0-0.4,0.3-0.6,0.6-0.6c0.4,0,0.6,0.3,0.6,0.6c0,0.4-0.3,0.6-0.6,0.6
		C82.5,33.5,82.2,33.2,82.2,32.9L82.2,32.9z"/>
	<path fill="#E9E8F3" d="M87.3,31.1c0-0.4,0.3-0.6,0.6-0.6c0.4,0,0.6,0.3,0.6,0.6c0,0.4-0.3,0.6-0.6,0.6
		C87.6,31.8,87.3,31.5,87.3,31.1L87.3,31.1z"/>
	<path fill="#E9E8F3" d="M89,43.1c0-0.4,0.3-0.6,0.6-0.6c0.4,0,0.6,0.3,0.6,0.6c0,0.4-0.3,0.6-0.6,0.6C89.3,43.7,89,43.4,89,43.1
		L89,43.1z"/>
	<path fill="#E9E8F3" d="M97.6,37.9c0-0.4,0.3-0.6,0.6-0.6c0.4,0,0.6,0.3,0.6,0.6s-0.3,0.6-0.6,0.6C97.9,38.6,97.6,38.3,97.6,37.9
		L97.6,37.9z"/>
	<path fill="#E9E8F3" d="M67,37.8c0-0.4,0.3-0.6,0.6-0.6c0.4,0,0.6,0.3,0.6,0.6c0,0.4-0.3,0.6-0.6,0.6C67.2,38.5,67,38.2,67,37.8
		L67,37.8z"/>
	<path fill="#E9E8F3" d="M78.9,43c0-0.3,0.2-0.5,0.5-0.5c0.3,0,0.5,0.2,0.5,0.5c0,0.3-0.2,0.5-0.5,0.5C79.1,43.5,78.9,43.3,78.9,43
		L78.9,43z"/>
	<path fill="#E9E8F3" d="M82.5,43.1c0-0.3,0.2-0.5,0.5-0.5c0.3,0,0.5,0.2,0.5,0.5c0,0.3-0.2,0.5-0.5,0.5
		C82.7,43.6,82.5,43.4,82.5,43.1L82.5,43.1z"/>
	<path fill="#E9E8F3" d="M85.8,43.1c0-0.3,0.2-0.5,0.5-0.5c0.3,0,0.5,0.2,0.5,0.5c0,0.3-0.2,0.5-0.5,0.5
		C86,43.6,85.8,43.4,85.8,43.1L85.8,43.1z"/>
	<path fill="#E9E8F3" d="M92.5,43c0-0.3,0.2-0.5,0.5-0.5c0.3,0,0.5,0.2,0.5,0.5c0,0.3-0.2,0.5-0.5,0.5C92.8,43.5,92.5,43.3,92.5,43
		L92.5,43z"/>
	<path fill="#E9E8F3" d="M94.3,41.4c0-0.3,0.2-0.5,0.5-0.5c0.3,0,0.5,0.2,0.5,0.5c0,0.3-0.2,0.5-0.5,0.5
		C94.5,41.9,94.3,41.7,94.3,41.4L94.3,41.4z"/>
	<path fill="#E9E8F3" d="M99.4,36.2c0-0.3,0.2-0.5,0.5-0.5c0.3,0,0.5,0.2,0.5,0.5c0,0.3-0.2,0.5-0.5,0.5
		C99.6,36.7,99.4,36.5,99.4,36.2L99.4,36.2z"/>
	<path fill="#E9E8F3" d="M102.8,32.8c0-0.3,0.2-0.5,0.5-0.5c0.3,0,0.5,0.2,0.5,0.5c0,0.3-0.2,0.5-0.5,0.5
		C103,33.3,102.8,33.1,102.8,32.8L102.8,32.8z"/>
	<path fill="#E9E8F3" d="M102.8,29.3c0-0.3,0.2-0.5,0.5-0.5c0.3,0,0.5,0.2,0.5,0.5c0,0.3-0.2,0.5-0.5,0.5
		C103,29.8,102.8,29.6,102.8,29.3L102.8,29.3z"/>
	<path fill="#E9E8F3" d="M97.7,27.6c0-0.3,0.2-0.5,0.5-0.5c0.3,0,0.5,0.2,0.5,0.5c0,0.3-0.2,0.5-0.5,0.5
		C97.9,28.1,97.7,27.9,97.7,27.6L97.7,27.6z"/>
	<path fill="#E9E8F3" d="M94.3,27.6c0-0.3,0.2-0.5,0.5-0.5c0.3,0,0.5,0.2,0.5,0.5c0,0.3-0.2,0.5-0.5,0.5
		C94.5,28.1,94.3,27.9,94.3,27.6L94.3,27.6z"/>
	<path fill="#E9E8F3" d="M92.5,29.4c0-0.4,0.3-0.6,0.6-0.6c0.4,0,0.6,0.3,0.6,0.6c0,0.4-0.3,0.6-0.6,0.6
		C92.7,30.1,92.5,29.8,92.5,29.4L92.5,29.4z"/>
	<path fill="#E9E8F3" d="M95.8,29.4c0-0.4,0.3-0.6,0.6-0.6c0.4,0,0.6,0.3,0.6,0.6c0,0.4-0.3,0.6-0.6,0.6
		C96.1,30,95.8,29.7,95.8,29.4L95.8,29.4z"/>
	<path fill="#E9E8F3" d="M95.8,39.6c0-0.4,0.3-0.6,0.6-0.6c0.4,0,0.6,0.3,0.6,0.6c0,0.4-0.3,0.6-0.6,0.6
		C96.1,40.2,95.8,40,95.8,39.6L95.8,39.6z"/>
	<path fill="#E9E8F3" d="M75.6,43.1c0-0.2,0.2-0.4,0.4-0.4c0.2,0,0.4,0.2,0.4,0.4c0,0.2-0.2,0.4-0.4,0.4
		C75.8,43.5,75.6,43.3,75.6,43.1L75.6,43.1z"/>
	<path fill="#E9E8F3" d="M77.4,44.7c0-0.2,0.2-0.4,0.4-0.4c0.2,0,0.4,0.2,0.4,0.4c0,0.2-0.2,0.4-0.4,0.4
		C77.6,45.1,77.4,45,77.4,44.7L77.4,44.7z"/>
	<path fill="#E9E8F3" d="M80.8,44.7c0-0.2,0.2-0.4,0.4-0.4c0.2,0,0.4,0.2,0.4,0.4c0,0.2-0.2,0.4-0.4,0.4C81,45.1,80.8,45,80.8,44.7
		L80.8,44.7z"/>
	<path fill="#E9E8F3" d="M84.2,44.7c0-0.2,0.2-0.4,0.4-0.4c0.2,0,0.4,0.2,0.4,0.4c0,0.2-0.2,0.4-0.4,0.4
		C84.4,45.1,84.2,45,84.2,44.7L84.2,44.7z"/>
	<path fill="#E9E8F3" d="M75.7,32.8c0-0.2,0.2-0.4,0.4-0.4c0.2,0,0.4,0.2,0.4,0.4c0,0.2-0.2,0.4-0.4,0.4
		C75.9,33.2,75.7,33,75.7,32.8L75.7,32.8z"/>
	<path fill="#E9E8F3" d="M79,32.8c0-0.2,0.2-0.4,0.4-0.4c0.2,0,0.4,0.2,0.4,0.4c0,0.2-0.2,0.4-0.4,0.4C79.2,33.2,79,33,79,32.8
		L79,32.8z"/>
	<path fill="#E9E8F3" d="M72.2,32.8c0-0.2,0.2-0.4,0.4-0.4c0.2,0,0.4,0.2,0.4,0.4c0,0.2-0.2,0.4-0.4,0.4
		C72.4,33.2,72.2,33,72.2,32.8L72.2,32.8z"/>
	<path fill="#E9E8F3" d="M89.2,29.4c0-0.2,0.2-0.4,0.4-0.4c0.2,0,0.4,0.2,0.4,0.4c0,0.2-0.2,0.4-0.4,0.4
		C89.4,29.8,89.2,29.6,89.2,29.4L89.2,29.4z"/>
	<path fill="#E9E8F3" d="M90.9,27.7c0-0.2,0.2-0.4,0.4-0.4c0.2,0,0.4,0.2,0.4,0.4c0,0.2-0.2,0.4-0.4,0.4
		C91.1,28.1,90.9,28,90.9,27.7L90.9,27.7z"/>
	<path fill="#E9E8F3" d="M92.8,26c0-0.2,0.2-0.4,0.4-0.4c0.2,0,0.4,0.2,0.4,0.4c0,0.2-0.2,0.4-0.4,0.4C93,26.4,92.8,26.2,92.8,26
		L92.8,26z"/>
	<path fill="#E9E8F3" d="M91.2,24.3c0-0.2,0.1-0.3,0.3-0.3c0.2,0,0.3,0.1,0.3,0.3c0,0.2-0.1,0.3-0.3,0.3
		C91.3,24.6,91.2,24.5,91.2,24.3L91.2,24.3z"/>
	<path fill="#E9E8F3" d="M89.5,26c0-0.2,0.1-0.3,0.3-0.3c0.2,0,0.3,0.1,0.3,0.3c0,0.2-0.1,0.3-0.3,0.3C89.6,26.3,89.5,26.2,89.5,26
		L89.5,26z"/>
	<path fill="#E9E8F3" d="M87.7,27.7c0-0.2,0.1-0.3,0.3-0.3c0.2,0,0.3,0.1,0.3,0.3c0,0.2-0.1,0.3-0.3,0.3
		C87.8,28,87.7,27.9,87.7,27.7L87.7,27.7z"/>
	<path fill="#E9E8F3" d="M86,29.4c0-0.2,0.1-0.3,0.3-0.3c0.2,0,0.3,0.1,0.3,0.3c0,0.2-0.1,0.3-0.3,0.3C86.1,29.7,86,29.6,86,29.4
		L86,29.4z"/>
	<path fill="#E9E8F3" d="M84.3,31.1c0-0.2,0.1-0.3,0.3-0.3c0.2,0,0.3,0.1,0.3,0.3c0,0.2-0.1,0.3-0.3,0.3
		C84.4,31.4,84.3,31.3,84.3,31.1L84.3,31.1z"/>
	<path fill="#E9E8F3" d="M84.4,27.7c0-0.1,0.1-0.2,0.2-0.2c0.1,0,0.2,0.1,0.2,0.2c0,0.1-0.1,0.2-0.2,0.2
		C84.5,27.9,84.4,27.8,84.4,27.7L84.4,27.7z"/>
	<path fill="#E9E8F3" d="M86.2,26c0-0.1,0.1-0.2,0.2-0.2c0.1,0,0.2,0.1,0.2,0.2c0,0.1-0.1,0.2-0.2,0.2C86.3,26.2,86.2,26.1,86.2,26
		L86.2,26z"/>
	<path fill="#E9E8F3" d="M87.9,24.3c0-0.1,0.1-0.2,0.2-0.2c0.1,0,0.2,0.1,0.2,0.2c0,0.1-0.1,0.2-0.2,0.2
		C88,24.5,87.9,24.4,87.9,24.3L87.9,24.3z"/>
	<path fill="#E9E8F3" d="M49.7,106c0-0.5,0.4-0.9,0.9-0.9c0.5,0,0.9,0.4,0.9,0.9c0,0.5-0.4,0.9-0.9,0.9
		C50.1,106.9,49.7,106.5,49.7,106L49.7,106z"/>
	<path fill="#E9E8F3" d="M51.3,104.3c0-0.5,0.4-0.9,0.9-0.9c0.5,0,0.9,0.4,0.9,0.9c0,0.5-0.4,0.9-0.9,0.9
		C51.7,105.3,51.3,104.8,51.3,104.3L51.3,104.3z"/>
	<path fill="#E9E8F3" d="M53,102.6c0-0.5,0.4-0.9,0.9-0.9c0.5,0,0.9,0.4,0.9,0.9c0,0.5-0.4,0.9-0.9,0.9
		C53.5,103.5,53,103.1,53,102.6L53,102.6z"/>
	<path fill="#E9E8F3" d="M56.5,102.5c0-0.5,0.4-0.9,0.9-0.9c0.5,0,0.9,0.4,0.9,0.9c0,0.5-0.4,0.9-0.9,0.9
		C57,103.4,56.5,103,56.5,102.5L56.5,102.5z"/>
	<path fill="#E9E8F3" d="M49.7,102.6c0-0.5,0.4-0.9,0.9-0.9c0.5,0,0.9,0.4,0.9,0.9c0,0.5-0.4,0.9-0.9,0.9
		C50.1,103.5,49.7,103.1,49.7,102.6L49.7,102.6z"/>
	<path fill="#E9E8F3" d="M48,104.3c0-0.5,0.4-0.9,0.9-0.9c0.5,0,0.9,0.4,0.9,0.9c0,0.5-0.4,0.9-0.9,0.9
		C48.4,105.2,48,104.8,48,104.3L48,104.3z"/>
	<path fill="#E9E8F3" d="M75.2,100.8c0-0.5,0.4-0.9,0.9-0.9c0.5,0,0.9,0.4,0.9,0.9c0,0.5-0.4,0.9-0.9,0.9
		C75.6,101.8,75.2,101.4,75.2,100.8L75.2,100.8z"/>
	<path fill="#E9E8F3" d="M78.6,100.8c0-0.5,0.4-0.9,0.9-0.9c0.5,0,0.9,0.4,0.9,0.9c0,0.5-0.4,0.9-0.9,0.9
		C79,101.7,78.6,101.3,78.6,100.8L78.6,100.8z"/>
	<path fill="#E9E8F3" d="M82,100.8c0-0.5,0.4-0.9,0.9-0.9c0.5,0,0.9,0.4,0.9,0.9c0,0.5-0.4,0.9-0.9,0.9
		C82.4,101.7,82,101.3,82,100.8L82,100.8z"/>
	<path fill="#E9E8F3" d="M85.6,100.9c0-0.4,0.3-0.7,0.7-0.7c0.4,0,0.7,0.3,0.7,0.7c0,0.4-0.3,0.7-0.7,0.7
		C85.9,101.6,85.6,101.3,85.6,100.9L85.6,100.9z"/>
	<path fill="#E9E8F3" d="M61.8,100.8c0-0.4,0.3-0.7,0.7-0.7c0.4,0,0.7,0.3,0.7,0.7c0,0.4-0.3,0.7-0.7,0.7
		C62.1,101.5,61.8,101.2,61.8,100.8L61.8,100.8z"/>
	<path fill="#E9E8F3" d="M66.8,102.5c0-0.4,0.3-0.7,0.7-0.7c0.4,0,0.7,0.3,0.7,0.7c0,0.4-0.3,0.7-0.7,0.7
		C67.1,103.3,66.8,102.9,66.8,102.5L66.8,102.5z"/>
	<path fill="#E9E8F3" d="M65.1,100.8c0-0.4,0.3-0.7,0.7-0.7c0.4,0,0.7,0.3,0.7,0.7c0,0.4-0.3,0.7-0.7,0.7
		C65.5,101.5,65.1,101.2,65.1,100.8L65.1,100.8z"/>
	<path fill="#E9E8F3" d="M63.4,102.5c0-0.4,0.3-0.7,0.7-0.7c0.4,0,0.7,0.3,0.7,0.7c0,0.4-0.3,0.7-0.7,0.7
		C63.8,103.2,63.4,102.9,63.4,102.5L63.4,102.5z"/>
	<path fill="#E9E8F3" d="M60,102.5c0-0.4,0.3-0.7,0.7-0.7c0.4,0,0.7,0.3,0.7,0.7c0,0.4-0.3,0.7-0.7,0.7
		C60.3,103.3,60,102.9,60,102.5L60,102.5z"/>
	<path fill="#E9E8F3" d="M70.2,102.5c0-0.4,0.3-0.7,0.7-0.7c0.4,0,0.7,0.3,0.7,0.7c0,0.4-0.3,0.7-0.7,0.7
		C70.5,103.3,70.2,102.9,70.2,102.5L70.2,102.5z"/>
	<path fill="#E9E8F3" d="M71.9,100.9c0-0.4,0.3-0.7,0.7-0.7c0.4,0,0.7,0.3,0.7,0.7c0,0.4-0.3,0.7-0.7,0.7
		C72.2,101.6,71.9,101.3,71.9,100.9L71.9,100.9z"/>
	<path fill="#E9E8F3" d="M68.5,100.8c0-0.4,0.3-0.7,0.7-0.7c0.4,0,0.7,0.3,0.7,0.7c0,0.4-0.3,0.7-0.7,0.7
		C68.9,101.5,68.5,101.2,68.5,100.8L68.5,100.8z"/>
	<path fill="#E9E8F3" d="M54.9,100.8c0-0.4,0.3-0.7,0.7-0.7c0.4,0,0.7,0.3,0.7,0.7c0,0.4-0.3,0.7-0.7,0.7
		C55.3,101.5,54.9,101.2,54.9,100.8L54.9,100.8z"/>
	<path fill="#E9E8F3" d="M51.5,100.9c0-0.4,0.3-0.7,0.7-0.7c0.4,0,0.7,0.3,0.7,0.7c0,0.4-0.3,0.7-0.7,0.7
		C51.9,101.6,51.5,101.3,51.5,100.9L51.5,100.9z"/>
	<path fill="#E9E8F3" d="M58.4,100.8c0-0.4,0.3-0.7,0.7-0.7c0.4,0,0.7,0.3,0.7,0.7c0,0.4-0.3,0.7-0.7,0.7
		C58.7,101.5,58.4,101.2,58.4,100.8L58.4,100.8z"/>
	<path fill="#E9E8F3" d="M54.9,104.2c0-0.4,0.3-0.7,0.7-0.7c0.4,0,0.7,0.3,0.7,0.7c0,0.4-0.3,0.7-0.7,0.7
		C55.3,104.9,54.9,104.6,54.9,104.2L54.9,104.2z"/>
	<path fill="#E9E8F3" d="M53.4,106c0-0.3,0.2-0.5,0.5-0.5c0.3,0,0.5,0.2,0.5,0.5c0,0.3-0.2,0.5-0.5,0.5
		C53.6,106.5,53.4,106.2,53.4,106L53.4,106z"/>
	<path fill="#E9E8F3" d="M51.7,107.8c0-0.3,0.2-0.5,0.5-0.5c0.3,0,0.5,0.2,0.5,0.5c0,0.3-0.2,0.5-0.5,0.5
		C51.9,108.3,51.7,108.1,51.7,107.8L51.7,107.8z"/>
	<path fill="#E9E8F3" d="M61.9,104.3c0-0.3,0.2-0.5,0.5-0.5c0.3,0,0.5,0.2,0.5,0.5c0,0.3-0.2,0.5-0.5,0.5
		C62.1,104.8,61.9,104.6,61.9,104.3L61.9,104.3z"/>
	<path fill="#E9E8F3" d="M65.4,104.3c0-0.3,0.2-0.5,0.5-0.5c0.3,0,0.5,0.2,0.5,0.5c0,0.3-0.2,0.5-0.5,0.5
		C65.6,104.7,65.4,104.5,65.4,104.3L65.4,104.3z"/>
	<path fill="#E9E8F3" d="M65.4,97.4c0-0.3,0.2-0.5,0.5-0.5c0.3,0,0.5,0.2,0.5,0.5c0,0.3-0.2,0.5-0.5,0.5
		C65.6,97.9,65.4,97.7,65.4,97.4L65.4,97.4z"/>
	<path fill="#E9E8F3" d="M63.6,99.1c0-0.3,0.2-0.5,0.5-0.5c0.3,0,0.5,0.2,0.5,0.5c0,0.3-0.2,0.5-0.5,0.5
		C63.9,99.6,63.6,99.4,63.6,99.1L63.6,99.1z"/>
	<path fill="#E9E8F3" d="M60.3,99.1c0-0.3,0.2-0.5,0.5-0.5c0.3,0,0.5,0.2,0.5,0.5c0,0.3-0.2,0.5-0.5,0.5
		C60.5,99.6,60.3,99.4,60.3,99.1L60.3,99.1z"/>
	<path fill="#E9E8F3" d="M62,97.4c0-0.3,0.2-0.5,0.5-0.5c0.3,0,0.5,0.2,0.5,0.5c0,0.3-0.2,0.5-0.5,0.5C62.2,97.9,62,97.7,62,97.4
		L62,97.4z"/>
	<path fill="#E9E8F3" d="M58.6,97.4c0-0.3,0.2-0.5,0.5-0.5c0.3,0,0.5,0.2,0.5,0.5c0,0.3-0.2,0.5-0.5,0.5
		C58.8,97.9,58.6,97.7,58.6,97.4L58.6,97.4z"/>
	<path fill="#E9E8F3" d="M75.6,97.4c0-0.3,0.2-0.5,0.5-0.5c0.3,0,0.5,0.2,0.5,0.5c0,0.3-0.2,0.5-0.5,0.5
		C75.8,97.9,75.6,97.7,75.6,97.4L75.6,97.4z"/>
	<path fill="#E9E8F3" d="M84.1,99.2c0-0.3,0.2-0.5,0.5-0.5c0.3,0,0.5,0.2,0.5,0.5c0,0.3-0.2,0.5-0.5,0.5
		C84.3,99.7,84.1,99.4,84.1,99.2L84.1,99.2z"/>
	<path fill="#E9E8F3" d="M80.6,99.2c0-0.3,0.3-0.6,0.6-0.6c0.3,0,0.6,0.3,0.6,0.6c0,0.3-0.3,0.6-0.6,0.6
		C80.8,99.8,80.6,99.5,80.6,99.2L80.6,99.2z"/>
	<path fill="#E9E8F3" d="M77,99.1c0-0.4,0.3-0.8,0.8-0.8c0.4,0,0.8,0.3,0.8,0.8c0,0.4-0.3,0.8-0.8,0.8C77.3,99.8,77,99.5,77,99.1
		L77,99.1z"/>
	<path fill="#E9E8F3" d="M73.6,99.2c0-0.4,0.3-0.8,0.8-0.8c0.4,0,0.8,0.3,0.8,0.8c0,0.4-0.3,0.8-0.8,0.8
		C73.9,99.9,73.6,99.6,73.6,99.2L73.6,99.2z"/>
	<path fill="#E9E8F3" d="M68.7,97.5c0-0.3,0.3-0.6,0.6-0.6c0.3,0,0.6,0.3,0.6,0.6c0,0.3-0.3,0.6-0.6,0.6
		C69,98.1,68.7,97.8,68.7,97.5L68.7,97.5z"/>
	<path fill="#E9E8F3" d="M66.9,99.1c0-0.3,0.3-0.6,0.6-0.6c0.3,0,0.6,0.3,0.6,0.6c0,0.3-0.3,0.6-0.6,0.6
		C67.2,99.7,66.9,99.4,66.9,99.1L66.9,99.1z"/>
	<path fill="#E9E8F3" d="M56.7,99.1c0-0.3,0.3-0.6,0.6-0.6c0.3,0,0.6,0.3,0.6,0.6c0,0.3-0.3,0.6-0.6,0.6
		C57,99.7,56.7,99.5,56.7,99.1L56.7,99.1z"/>
	<path fill="#E9E8F3" d="M48.2,100.9c0-0.3,0.3-0.6,0.6-0.6c0.3,0,0.6,0.3,0.6,0.6c0,0.3-0.3,0.6-0.6,0.6
		C48.5,101.5,48.2,101.2,48.2,100.9L48.2,100.9z"/>
	<path fill="#E9E8F3" d="M50,99.1c0-0.3,0.3-0.6,0.6-0.6c0.3,0,0.6,0.3,0.6,0.6c0,0.3-0.3,0.6-0.6,0.6C50.3,99.7,50,99.5,50,99.1
		L50,99.1z"/>
	<path fill="#E9E8F3" d="M53.4,99.1c0-0.3,0.3-0.6,0.6-0.6c0.3,0,0.6,0.3,0.6,0.6c0,0.3-0.3,0.6-0.6,0.6
		C53.6,99.7,53.4,99.4,53.4,99.1L53.4,99.1z"/>
	<path fill="#E9E8F3" d="M58.5,104.2c0-0.3,0.2-0.5,0.5-0.5c0.3,0,0.5,0.2,0.5,0.5c0,0.3-0.2,0.5-0.5,0.5
		C58.8,104.7,58.5,104.5,58.5,104.2L58.5,104.2z"/>
	<path fill="#E9E8F3" d="M72.2,97.4c0-0.3,0.2-0.5,0.5-0.5c0.3,0,0.5,0.2,0.5,0.5c0,0.3-0.2,0.5-0.5,0.5
		C72.4,97.9,72.2,97.7,72.2,97.4L72.2,97.4z"/>
	<path fill="#E9E8F3" d="M79.2,97.4c0-0.2,0.1-0.3,0.3-0.3c0.2,0,0.3,0.1,0.3,0.3c0,0.2-0.1,0.3-0.3,0.3
		C79.3,97.7,79.2,97.6,79.2,97.4L79.2,97.4z"/>
	<path fill="#E9E8F3" d="M68.9,104.2c0-0.2,0.1-0.3,0.3-0.3c0.2,0,0.3,0.1,0.3,0.3c0,0.2-0.1,0.3-0.3,0.3
		C69.1,104.6,68.9,104.4,68.9,104.2L68.9,104.2z"/>
	<path fill="#E9E8F3" d="M70.2,99.2c0-0.4,0.3-0.8,0.8-0.8c0.4,0,0.8,0.3,0.8,0.8c0,0.4-0.3,0.8-0.8,0.8
		C70.5,100,70.2,99.6,70.2,99.2L70.2,99.2z"/>
	<path fill="#E9E8F3" d="M46.7,102.6c0-0.3,0.2-0.5,0.5-0.5c0.3,0,0.5,0.2,0.5,0.5c0,0.3-0.2,0.5-0.5,0.5
		C46.9,103.1,46.7,102.9,46.7,102.6L46.7,102.6z"/>
	<path fill="#E9E8F3" d="M51.7,97.5c0-0.3,0.2-0.5,0.5-0.5c0.3,0,0.5,0.2,0.5,0.5c0,0.3-0.2,0.5-0.5,0.5
		C51.9,98,51.7,97.8,51.7,97.5L51.7,97.5z"/>
	<path fill="#E9E8F3" d="M67.2,95.8c0-0.2,0.2-0.4,0.4-0.4c0.2,0,0.4,0.2,0.4,0.4c0,0.2-0.2,0.4-0.4,0.4
		C67.4,96.2,67.2,96,67.2,95.8L67.2,95.8z"/>
	<path fill="#E9E8F3" d="M63.7,95.7c0-0.2,0.2-0.4,0.4-0.4c0.2,0,0.4,0.2,0.4,0.4c0,0.2-0.2,0.4-0.4,0.4
		C63.9,96.1,63.7,95.9,63.7,95.7L63.7,95.7z"/>
	<path fill="#E9E8F3" d="M60.3,95.7c0-0.2,0.2-0.4,0.4-0.4c0.2,0,0.4,0.2,0.4,0.4c0,0.2-0.2,0.4-0.4,0.4
		C60.5,96.1,60.3,96,60.3,95.7L60.3,95.7z"/>
	<path fill="#E9E8F3" d="M48.4,107.6c0-0.2,0.2-0.4,0.4-0.4c0.2,0,0.4,0.2,0.4,0.4c0,0.2-0.2,0.4-0.4,0.4
		C48.6,108,48.4,107.8,48.4,107.6L48.4,107.6z"/>
	<path fill="#E9E8F3" d="M46.9,106c0-0.2,0.1-0.3,0.3-0.3c0.2,0,0.3,0.1,0.3,0.3c0,0.2-0.1,0.3-0.3,0.3
		C47,106.3,46.9,106.1,46.9,106L46.9,106z"/>
	<path fill="#E9E8F3" d="M73.8,102.5c0-0.3,0.2-0.5,0.5-0.5c0.3,0,0.5,0.2,0.5,0.5c0,0.3-0.2,0.5-0.5,0.5
		C74,103,73.8,102.8,73.8,102.5L73.8,102.5z"/>
	<path fill="#E9E8F3" d="M77.3,102.5c0-0.3,0.2-0.5,0.5-0.5c0.3,0,0.5,0.2,0.5,0.5c0,0.3-0.2,0.5-0.5,0.5
		C77.5,103,77.3,102.8,77.3,102.5L77.3,102.5z"/>
	<path fill="#E9E8F3" d="M80.6,102.5c0-0.3,0.3-0.6,0.6-0.6c0.3,0,0.6,0.3,0.6,0.6c0,0.3-0.3,0.6-0.6,0.6
		C80.8,103.1,80.6,102.8,80.6,102.5L80.6,102.5z"/>
	<path fill="#E9E8F3" d="M83.8,102.5c0-0.4,0.4-0.8,0.8-0.8c0.4,0,0.8,0.4,0.8,0.8c0,0.4-0.4,0.8-0.8,0.8
		C84.1,103.3,83.8,103,83.8,102.5L83.8,102.5z"/>
	<path fill="#E9E8F3" d="M78.7,107.6c0-0.4,0.4-0.8,0.8-0.8c0.4,0,0.8,0.4,0.8,0.8c0,0.4-0.4,0.8-0.8,0.8
		C79,108.4,78.7,108.1,78.7,107.6L78.7,107.6z"/>
	<path fill="#E9E8F3" d="M80.4,109.4c0-0.4,0.4-0.8,0.8-0.8c0.4,0,0.8,0.4,0.8,0.8c0,0.4-0.4,0.8-0.8,0.8
		C80.8,110.1,80.4,109.8,80.4,109.4L80.4,109.4z"/>
	<path fill="#E9E8F3" d="M78.8,111.1c0-0.4,0.3-0.6,0.6-0.6c0.4,0,0.6,0.3,0.6,0.6c0,0.4-0.3,0.6-0.6,0.6
		C79.1,111.7,78.8,111.4,78.8,111.1L78.8,111.1z"/>
	<path fill="#E9E8F3" d="M75.5,107.7c0-0.4,0.3-0.6,0.6-0.6c0.3,0,0.6,0.3,0.6,0.6c0,0.3-0.3,0.6-0.6,0.6
		C75.8,108.3,75.5,108,75.5,107.7L75.5,107.7z"/>
	<path fill="#E9E8F3" d="M80.5,105.9c0-0.3,0.3-0.6,0.6-0.6c0.4,0,0.6,0.3,0.6,0.6c0,0.4-0.3,0.6-0.6,0.6
		C80.8,106.6,80.5,106.3,80.5,105.9L80.5,105.9z"/>
	<path fill="#E9E8F3" d="M82.3,104.3c0-0.3,0.3-0.6,0.6-0.6c0.3,0,0.6,0.3,0.6,0.6c0,0.3-0.3,0.6-0.6,0.6
		C82.6,104.9,82.3,104.6,82.3,104.3L82.3,104.3z"/>
	<path fill="#E9E8F3" d="M83.9,105.9c0-0.4,0.3-0.6,0.6-0.6c0.3,0,0.6,0.3,0.6,0.6c0,0.4-0.3,0.6-0.6,0.6
		C84.2,106.5,83.9,106.3,83.9,105.9L83.9,105.9z"/>
	<path fill="#E9E8F3" d="M82.2,107.6c0-0.3,0.3-0.6,0.6-0.6c0.3,0,0.6,0.3,0.6,0.6c0,0.3-0.3,0.6-0.6,0.6
		C82.5,108.3,82.2,108,82.2,107.6L82.2,107.6z"/>
	<path fill="#E9E8F3" d="M87.3,102.6c0-0.3,0.3-0.6,0.6-0.6c0.4,0,0.6,0.3,0.6,0.6c0,0.4-0.3,0.6-0.6,0.6
		C87.6,103.3,87.3,103,87.3,102.6L87.3,102.6z"/>
	<path fill="#E9E8F3" d="M85.8,104.3c0-0.3,0.2-0.5,0.5-0.5c0.3,0,0.5,0.2,0.5,0.5c0,0.3-0.2,0.5-0.5,0.5
		C86,104.8,85.8,104.6,85.8,104.3L85.8,104.3z"/>
	<path fill="#E9E8F3" d="M77.2,112.7c0-0.3,0.2-0.5,0.5-0.5c0.3,0,0.5,0.2,0.5,0.5c0,0.3-0.2,0.5-0.5,0.5
		C77.4,113.2,77.2,113,77.2,112.7L77.2,112.7z"/>
	<path fill="#E9E8F3" d="M76.9,109.3c0-0.5,0.4-0.8,0.8-0.8c0.5,0,0.8,0.4,0.8,0.8c0,0.5-0.4,0.8-0.8,0.8
		C77.3,110.2,76.9,109.8,76.9,109.3L76.9,109.3z"/>
	<path fill="#E9E8F3" d="M73.5,109.4c0-0.5,0.4-0.8,0.8-0.8c0.5,0,0.8,0.4,0.8,0.8c0,0.5-0.4,0.8-0.8,0.8
		C73.9,110.3,73.5,109.9,73.5,109.4L73.5,109.4z"/>
	<path fill="#E9E8F3" d="M71.8,111.1c0-0.5,0.4-0.8,0.8-0.8c0.5,0,0.8,0.4,0.8,0.8c0,0.5-0.4,0.8-0.8,0.8
		C72.2,111.9,71.8,111.5,71.8,111.1L71.8,111.1z"/>
	<path fill="#E9E8F3" d="M68.4,114.4c0-0.5,0.4-0.8,0.8-0.8c0.5,0,0.8,0.4,0.8,0.8c0,0.5-0.4,0.8-0.8,0.8
		C68.8,115.3,68.4,114.9,68.4,114.4L68.4,114.4z"/>
	<path fill="#E9E8F3" d="M65,114.5c0-0.5,0.4-0.8,0.8-0.8c0.5,0,0.8,0.4,0.8,0.8c0,0.5-0.4,0.8-0.8,0.8
		C65.4,115.3,65,114.9,65,114.5L65,114.5z"/>
	<path fill="#E9E8F3" d="M61.6,114.4c0-0.5,0.4-0.8,0.8-0.8c0.5,0,0.8,0.4,0.8,0.8c0,0.5-0.4,0.8-0.8,0.8
		C62,115.3,61.6,114.9,61.6,114.4L61.6,114.4z"/>
	<path fill="#E9E8F3" d="M63.3,112.8c0-0.5,0.4-0.8,0.8-0.8c0.5,0,0.8,0.4,0.8,0.8c0,0.5-0.4,0.8-0.8,0.8
		C63.7,113.6,63.3,113.2,63.3,112.8L63.3,112.8z"/>
	<path fill="#E9E8F3" d="M60,112.8c0-0.4,0.4-0.8,0.8-0.8c0.4,0,0.8,0.3,0.8,0.8c0,0.4-0.3,0.8-0.8,0.8
		C60.3,113.6,60,113.3,60,112.8L60,112.8z"/>
	<path fill="#E9E8F3" d="M58.3,114.5c0-0.4,0.3-0.8,0.8-0.8c0.4,0,0.8,0.4,0.8,0.8c0,0.4-0.4,0.8-0.8,0.8
		C58.6,115.3,58.3,114.9,58.3,114.5L58.3,114.5z"/>
	<path fill="#E9E8F3" d="M66.7,112.8c0-0.5,0.4-0.8,0.8-0.8c0.5,0,0.8,0.4,0.8,0.8c0,0.5-0.4,0.8-0.8,0.8
		C67.1,113.6,66.7,113.2,66.7,112.8L66.7,112.8z"/>
	<path fill="#E9E8F3" d="M70,112.7c0-0.5,0.4-1,1-1c0.5,0,1,0.4,1,1c0,0.5-0.4,1-1,1C70.4,113.7,70,113.3,70,112.7L70,112.7z"/>
	<path fill="#E9E8F3" d="M75.2,111.1c0-0.5,0.4-0.9,0.9-0.9c0.5,0,0.9,0.4,0.9,0.9c0,0.5-0.4,0.9-0.9,0.9
		C75.6,112,75.2,111.6,75.2,111.1L75.2,111.1z"/>
	<path fill="#E9E8F3" d="M73.7,112.7c0-0.4,0.3-0.7,0.7-0.7c0.4,0,0.7,0.3,0.7,0.7c0,0.4-0.3,0.7-0.7,0.7
		C74,113.4,73.7,113.1,73.7,112.7L73.7,112.7z"/>
	<path fill="#E9E8F3" d="M72,114.4c0-0.4,0.3-0.7,0.7-0.7c0.4,0,0.7,0.3,0.7,0.7c0,0.4-0.3,0.7-0.7,0.7
		C72.3,115.1,72,114.8,72,114.4L72,114.4z"/>
	<path fill="#E9E8F3" d="M68.6,111.1c0-0.4,0.3-0.7,0.7-0.7c0.4,0,0.7,0.3,0.7,0.7c0,0.4-0.3,0.7-0.7,0.7
		C69,111.7,68.6,111.4,68.6,111.1L68.6,111.1z"/>
	<path fill="#E9E8F3" d="M56.8,112.8c0-0.3,0.2-0.5,0.5-0.5c0.3,0,0.5,0.2,0.5,0.5c0,0.3-0.2,0.5-0.5,0.5
		C57.1,113.3,56.8,113,56.8,112.8L56.8,112.8z"/>
	<path fill="#E9E8F3" d="M55.2,114.4c0-0.3,0.2-0.5,0.5-0.5c0.3,0,0.5,0.2,0.5,0.5c0,0.3-0.2,0.5-0.5,0.5
		C55.4,114.9,55.2,114.7,55.2,114.4L55.2,114.4z"/>
	<path fill="#E9E8F3" d="M60.2,116.2c0-0.3,0.2-0.5,0.5-0.5c0.3,0,0.5,0.2,0.5,0.5c0,0.3-0.2,0.5-0.5,0.5
		C60.4,116.7,60.2,116.5,60.2,116.2L60.2,116.2z"/>
	<path fill="#E9E8F3" d="M63.7,116.1c0-0.3,0.2-0.5,0.5-0.5c0.3,0,0.5,0.2,0.5,0.5c0,0.3-0.2,0.5-0.5,0.5
		C63.9,116.6,63.7,116.4,63.7,116.1L63.7,116.1z"/>
	<path fill="#E9E8F3" d="M70.5,109.3c0-0.3,0.2-0.5,0.5-0.5c0.3,0,0.5,0.2,0.5,0.5c0,0.3-0.2,0.5-0.5,0.5
		C70.7,109.8,70.5,109.6,70.5,109.3L70.5,109.3z"/>
	<path fill="#E9E8F3" d="M65.5,111c0-0.2,0.2-0.4,0.4-0.4c0.2,0,0.4,0.2,0.4,0.4c0,0.2-0.2,0.4-0.4,0.4
		C65.7,111.4,65.5,111.3,65.5,111L65.5,111z"/>
	<path fill="#E9E8F3" d="M62.1,111.1c0-0.2,0.2-0.4,0.4-0.4c0.2,0,0.4,0.2,0.4,0.4c0,0.2-0.2,0.4-0.4,0.4
		C62.2,111.4,62.1,111.3,62.1,111.1L62.1,111.1z"/>
	<path fill="#E9E8F3" d="M58.7,111c0-0.2,0.2-0.4,0.4-0.4c0.2,0,0.4,0.2,0.4,0.4c0,0.2-0.2,0.4-0.4,0.4
		C58.8,111.4,58.7,111.2,58.7,111L58.7,111z"/>
	<path fill="#E9E8F3" d="M55.4,111c0-0.2,0.2-0.4,0.4-0.4c0.2,0,0.4,0.2,0.4,0.4c0,0.2-0.2,0.4-0.4,0.4
		C55.5,111.4,55.4,111.2,55.4,111L55.4,111z"/>
	<path fill="#E9E8F3" d="M53.6,112.8c0-0.2,0.2-0.4,0.4-0.4c0.2,0,0.4,0.2,0.4,0.4c0,0.2-0.2,0.4-0.4,0.4
		C53.8,113.2,53.6,113,53.6,112.8L53.6,112.8z"/>
	<path fill="#E9E8F3" d="M57,116.1c0-0.2,0.2-0.4,0.4-0.4c0.2,0,0.4,0.2,0.4,0.4c0,0.2-0.2,0.4-0.4,0.4
		C57.2,116.5,57,116.3,57,116.1L57,116.1z"/>
	<path fill="#E9E8F3" d="M67.1,116.2c0-0.2,0.2-0.4,0.4-0.4c0.2,0,0.4,0.2,0.4,0.4c0,0.2-0.2,0.4-0.4,0.4
		C67.3,116.6,67.1,116.4,67.1,116.2L67.1,116.2z"/>
	<path fill="#E9E8F3" d="M70.6,116.2c0-0.2,0.2-0.4,0.4-0.4c0.2,0,0.4,0.2,0.4,0.4s-0.2,0.4-0.4,0.4
		C70.8,116.6,70.6,116.4,70.6,116.2L70.6,116.2z"/>
	<path fill="#E9E8F3" d="M80.8,112.8c0-0.2,0.2-0.4,0.4-0.4c0.2,0,0.4,0.2,0.4,0.4c0,0.2-0.2,0.4-0.4,0.4
		C81,113.1,80.8,113,80.8,112.8L80.8,112.8z"/>
	<path fill="#E9E8F3" d="M75.8,114.4c0-0.2,0.1-0.3,0.3-0.3c0.2,0,0.3,0.1,0.3,0.3c0,0.2-0.1,0.3-0.3,0.3
		C75.9,114.7,75.8,114.6,75.8,114.4L75.8,114.4z"/>
	<path fill="#E9E8F3" d="M79.2,114.4c0-0.2,0.1-0.3,0.3-0.3c0.2,0,0.3,0.1,0.3,0.3c0,0.2-0.1,0.3-0.3,0.3
		C79.3,114.7,79.2,114.6,79.2,114.4L79.2,114.4z"/>
	<path fill="#E9E8F3" d="M82.5,111.1c0-0.2,0.1-0.3,0.3-0.3s0.3,0.1,0.3,0.3c0,0.2-0.1,0.3-0.3,0.3S82.5,111.2,82.5,111.1
		L82.5,111.1z"/>
	<path fill="#E9E8F3" d="M84.2,109.3c0-0.2,0.1-0.3,0.3-0.3c0.2,0,0.3,0.1,0.3,0.3c0,0.2-0.1,0.3-0.3,0.3
		C84.4,109.6,84.2,109.5,84.2,109.3L84.2,109.3z"/>
	<path fill="#E9E8F3" d="M74.2,116.2c0-0.1,0.1-0.2,0.2-0.2c0.1,0,0.2,0.1,0.2,0.2c0,0.1-0.1,0.2-0.2,0.2
		C74.3,116.4,74.2,116.3,74.2,116.2L74.2,116.2z"/>
	<path fill="#E9E8F3" d="M77.5,116.2c0-0.1,0.1-0.2,0.2-0.2c0.1,0,0.2,0.1,0.2,0.2c0,0.1-0.1,0.2-0.2,0.2
		C77.6,116.4,77.5,116.3,77.5,116.2L77.5,116.2z"/>
	<path fill="#E9E8F3" d="M81,116.2c0-0.1,0.1-0.2,0.2-0.2c0.1,0,0.2,0.1,0.2,0.2c0,0.1-0.1,0.2-0.2,0.2
		C81.1,116.4,81,116.3,81,116.2L81,116.2z"/>
	<path fill="#E9E8F3" d="M82.7,114.5c0-0.1,0.1-0.2,0.2-0.2c0.1,0,0.2,0.1,0.2,0.2c0,0.1-0.1,0.2-0.2,0.2
		C82.8,114.7,82.7,114.6,82.7,114.5L82.7,114.5z"/>
	<path fill="#E9E8F3" d="M84.4,112.8c0-0.1,0.1-0.2,0.2-0.2c0.1,0,0.2,0.1,0.2,0.2c0,0.1-0.1,0.2-0.2,0.2
		C84.5,113,84.4,112.9,84.4,112.8L84.4,112.8z"/>
	<path fill="#E9E8F3" d="M84.4,116.1c0-0.1,0.1-0.2,0.2-0.2c0.1,0,0.2,0.1,0.2,0.2c0,0.1-0.1,0.2-0.2,0.2
		C84.5,116.3,84.4,116.2,84.4,116.1L84.4,116.1z"/>
	<path fill="#E9E8F3" d="M72.4,104.2c0-0.1,0.1-0.2,0.2-0.2c0.1,0,0.2,0.1,0.2,0.2c0,0.1-0.1,0.2-0.2,0.2
		C72.5,104.5,72.4,104.4,72.4,104.2L72.4,104.2z"/>
	<path fill="#E9E8F3" d="M79.1,104.2c0-0.2,0.1-0.3,0.3-0.3c0.2,0,0.3,0.1,0.3,0.3s-0.1,0.3-0.3,0.3
		C79.3,104.6,79.1,104.4,79.1,104.2L79.1,104.2z"/>
	<path fill="#E9E8F3" d="M77.4,105.9c0-0.2,0.1-0.3,0.3-0.3c0.2,0,0.3,0.1,0.3,0.3c0,0.2-0.1,0.3-0.3,0.3
		C77.6,106.2,77.4,106.1,77.4,105.9L77.4,105.9z"/>
	<path fill="#E9E8F3" d="M89.4,100.9c0-0.2,0.1-0.3,0.3-0.3c0.2,0,0.3,0.1,0.3,0.3c0,0.2-0.1,0.3-0.3,0.3
		C89.6,101.2,89.4,101,89.4,100.9L89.4,100.9z"/>
	<path fill="#E9E8F3" d="M87.7,105.9c0-0.2,0.1-0.3,0.3-0.3c0.2,0,0.3,0.1,0.3,0.3c0,0.2-0.1,0.3-0.3,0.3
		C87.8,106.2,87.7,106.1,87.7,105.9L87.7,105.9z"/>
	<path fill="#E9E8F3" d="M86,107.6c0-0.2,0.1-0.3,0.3-0.3c0.2,0,0.3,0.1,0.3,0.3c0,0.2-0.1,0.3-0.3,0.3C86.1,108,86,107.8,86,107.6
		L86,107.6z"/>
	<path fill="#E9E8F3" d="M72.4,107.6c0-0.2,0.1-0.3,0.3-0.3c0.2,0,0.3,0.1,0.3,0.3c0,0.2-0.1,0.3-0.3,0.3
		C72.5,108,72.4,107.8,72.4,107.6L72.4,107.6z"/>
	<path fill="#E9E8F3" d="M74.1,106c0-0.1,0.1-0.2,0.2-0.2c0.1,0,0.2,0.1,0.2,0.2c0,0.1-0.1,0.2-0.2,0.2
		C74.2,106.2,74.1,106.1,74.1,106L74.1,106z"/>
	<path fill="#E9E8F3" d="M75.8,104.2c0-0.1,0.1-0.2,0.2-0.2c0.1,0,0.2,0.1,0.2,0.2c0,0.1-0.1,0.2-0.2,0.2
		C75.9,104.5,75.8,104.4,75.8,104.2L75.8,104.2z"/>
	<path fill="#E9E8F3" d="M67.4,106c0-0.1,0.1-0.2,0.2-0.2c0.1,0,0.2,0.1,0.2,0.2c0,0.1-0.1,0.2-0.2,0.2
		C67.5,106.2,67.4,106.1,67.4,106L67.4,106z"/>
	<path fill="#E9E8F3" d="M70.8,105.9c0-0.1,0.1-0.2,0.2-0.2c0.1,0,0.2,0.1,0.2,0.2c0,0.1-0.1,0.2-0.2,0.2
		C70.9,106.1,70.8,106,70.8,105.9L70.8,105.9z"/>
	<path fill="#E9E8F3" d="M69.1,107.7c0-0.1,0.1-0.2,0.2-0.2c0.1,0,0.2,0.1,0.2,0.2c0,0.1-0.1,0.2-0.2,0.2
		C69.2,107.8,69.1,107.7,69.1,107.7L69.1,107.7z"/>
	<path fill="#E9E8F3" d="M67.3,109.4c0-0.1,0.1-0.2,0.2-0.2c0.1,0,0.2,0.1,0.2,0.2c0,0.1-0.1,0.2-0.2,0.2
		C67.4,109.5,67.3,109.5,67.3,109.4L67.3,109.4z"/>
	<path fill="#E9E8F3" d="M64,106c0-0.1,0.1-0.2,0.2-0.2c0.1,0,0.2,0.1,0.2,0.2c0,0.1-0.1,0.2-0.2,0.2C64.1,106.1,64,106.1,64,106
		L64,106z"/>
	<path fill="#E9E8F3" d="M60.6,106c0-0.1,0.1-0.2,0.2-0.2c0.1,0,0.2,0.1,0.2,0.2c0,0.1-0.1,0.2-0.2,0.2
		C60.7,106.1,60.6,106.1,60.6,106L60.6,106z"/>
	<path fill="#E9E8F3" d="M57.2,106c0-0.1,0.1-0.2,0.2-0.2c0.1,0,0.2,0.1,0.2,0.2c0,0.1-0.1,0.2-0.2,0.2
		C57.3,106.1,57.2,106.1,57.2,106L57.2,106z"/>
	<path fill="#E9E8F3" d="M57.2,109.4c0-0.1,0.1-0.2,0.2-0.2c0.1,0,0.2,0.1,0.2,0.2c0,0.1-0.1,0.2-0.2,0.2
		C57.3,109.5,57.2,109.4,57.2,109.4L57.2,109.4z"/>
	<path fill="#E9E8F3" d="M55.5,107.7c0-0.1,0.1-0.2,0.2-0.2c0.1,0,0.2,0.1,0.2,0.2c0,0.1-0.1,0.2-0.2,0.2
		C55.6,107.8,55.5,107.7,55.5,107.7L55.5,107.7z"/>
	<path fill="#E9E8F3" d="M53.8,109.4c0-0.1,0.1-0.2,0.2-0.2c0.1,0,0.2,0.1,0.2,0.2c0,0.1-0.1,0.2-0.2,0.2
		C53.9,109.5,53.8,109.4,53.8,109.4L53.8,109.4z"/>
	<path fill="#E9E8F3" d="M52.1,111.1c0-0.1,0.1-0.2,0.2-0.2c0.1,0,0.2,0.1,0.2,0.2c0,0.1-0.1,0.2-0.2,0.2
		C52.1,111.2,52.1,111.2,52.1,111.1L52.1,111.1z"/>
	<path fill="#E9E8F3" d="M50.4,109.4c0-0.1,0.1-0.2,0.2-0.2c0.1,0,0.2,0.1,0.2,0.2c0,0.1-0.1,0.2-0.2,0.2
		C50.5,109.6,50.4,109.5,50.4,109.4L50.4,109.4z"/>
	<path fill="#E9E8F3" d="M47,109.4c0-0.1,0.1-0.2,0.2-0.2c0.1,0,0.2,0.1,0.2,0.2c0,0.1-0.1,0.2-0.2,0.2
		C47.1,109.5,47,109.5,47,109.4L47,109.4z"/>
	<path fill="#E9E8F3" d="M52.1,114.4c0-0.1,0.1-0.2,0.2-0.2c0.1,0,0.2,0.1,0.2,0.2c0,0.1-0.1,0.2-0.2,0.2
		C52.1,114.6,52.1,114.5,52.1,114.4L52.1,114.4z"/>
	<path fill="#E9E8F3" d="M53.8,116.2c0-0.1,0.1-0.2,0.2-0.2c0.1,0,0.2,0.1,0.2,0.2c0,0.1-0.1,0.2-0.2,0.2
		C53.9,116.4,53.8,116.3,53.8,116.2L53.8,116.2z"/>
	<path fill="#E9E8F3" d="M58.9,117.9c0-0.1,0.1-0.2,0.2-0.2c0.1,0,0.2,0.1,0.2,0.2s-0.1,0.2-0.2,0.2C59,118,58.9,118,58.9,117.9
		L58.9,117.9z"/>
	<path fill="#E9E8F3" d="M62.4,117.9c0-0.1,0.1-0.2,0.2-0.2c0.1,0,0.2,0.1,0.2,0.2c0,0.1-0.1,0.2-0.2,0.2
		C62.4,118,62.4,118,62.4,117.9L62.4,117.9z"/>
	<path fill="#E9E8F3" d="M65.7,117.9c0-0.1,0.1-0.2,0.2-0.2c0.1,0,0.2,0.1,0.2,0.2c0,0.1-0.1,0.2-0.2,0.2
		C65.8,118.1,65.7,118,65.7,117.9L65.7,117.9z"/>
	<path fill="#E9E8F3" d="M55.2,97.5c0-0.2,0.1-0.3,0.3-0.3s0.3,0.1,0.3,0.3c0,0.2-0.1,0.3-0.3,0.3S55.2,97.6,55.2,97.5L55.2,97.5z"
		/>
	<path fill="#E9E8F3" d="M47,99.1c0-0.1,0.1-0.2,0.2-0.2c0.1,0,0.2,0.1,0.2,0.2c0,0.1-0.1,0.2-0.2,0.2C47.1,99.3,47,99.2,47,99.1
		L47,99.1z"/>
	<path fill="#E9E8F3" d="M48.6,97.5c0-0.1,0.1-0.2,0.2-0.2c0.1,0,0.2,0.1,0.2,0.2c0,0.1-0.1,0.2-0.2,0.2
		C48.7,97.7,48.6,97.6,48.6,97.5L48.6,97.5z"/>
	<path fill="#E9E8F3" d="M50.4,95.7c0-0.1,0.1-0.2,0.2-0.2c0.1,0,0.2,0.1,0.2,0.2c0,0.1-0.1,0.2-0.2,0.2
		C50.5,96,50.4,95.9,50.4,95.7L50.4,95.7z"/>
	<path fill="#E9E8F3" d="M53.8,95.8c0-0.1,0.1-0.2,0.2-0.2c0.1,0,0.2,0.1,0.2,0.2l-0.2,0H53.8L53.8,95.8z"/>
	<path fill="#E9E8F3" d="M70.7,95.8c0-0.2,0.1-0.3,0.3-0.3c0.2,0,0.3,0.1,0.3,0.3c0,0.2-0.1,0.3-0.3,0.3
		C70.8,96.1,70.7,95.9,70.7,95.8L70.7,95.8z"/>
	<path fill="#E9E8F3" d="M87.7,99.2c0-0.2,0.1-0.3,0.3-0.3c0.2,0,0.3,0.1,0.3,0.3c0,0.2-0.1,0.3-0.3,0.3
		C87.8,99.5,87.7,99.3,87.7,99.2L87.7,99.2z"/>
	<path fill="#E9E8F3" d="M53.1,85.5c0-0.5,0.4-0.9,0.9-0.9c0.5,0,0.9,0.4,0.9,0.9c0,0.5-0.4,0.9-0.9,0.9
		C53.5,86.4,53.1,86,53.1,85.5L53.1,85.5z"/>
	<path fill="#E9E8F3" d="M54.7,83.8c0-0.5,0.4-0.9,0.9-0.9c0.5,0,0.9,0.4,0.9,0.9c0,0.5-0.4,0.9-0.9,0.9
		C55.1,84.8,54.7,84.4,54.7,83.8L54.7,83.8z"/>
	<path fill="#E9E8F3" d="M59.8,78.8c0-0.5,0.4-0.9,0.9-0.9c0.5,0,0.9,0.4,0.9,0.9c0,0.5-0.4,0.9-0.9,0.9
		C60.2,79.7,59.8,79.3,59.8,78.8L59.8,78.8z"/>
	<path fill="#E9E8F3" d="M56.4,78.8c0-0.5,0.4-0.9,0.9-0.9c0.5,0,0.9,0.4,0.9,0.9c0,0.5-0.4,0.9-0.9,0.9
		C56.8,79.7,56.4,79.3,56.4,78.8L56.4,78.8z"/>
	<path fill="#E9E8F3" d="M70,78.8c0-0.5,0.4-0.9,0.9-0.9c0.5,0,0.9,0.4,0.9,0.9c0,0.5-0.4,0.9-0.9,0.9C70.4,79.7,70,79.3,70,78.8
		L70,78.8z"/>
	<path fill="#E9E8F3" d="M68.4,77c0-0.5,0.4-0.9,0.9-0.9c0.5,0,0.9,0.4,0.9,0.9c0,0.5-0.4,0.9-0.9,0.9C68.8,77.9,68.4,77.5,68.4,77
		L68.4,77z"/>
	<path fill="#E9E8F3" d="M70.1,75.5c0-0.5,0.4-0.9,0.9-0.9c0.5,0,0.9,0.4,0.9,0.9c0,0.5-0.4,0.9-0.9,0.9
		C70.4,76.3,70.1,75.9,70.1,75.5L70.1,75.5z"/>
	<path fill="#E9E8F3" d="M66.7,78.8c0-0.5,0.4-0.9,0.9-0.9c0.5,0,0.9,0.4,0.9,0.9c0,0.5-0.4,0.9-0.9,0.9
		C67.1,79.6,66.7,79.2,66.7,78.8L66.7,78.8z"/>
	<path fill="#E9E8F3" d="M68.3,80.4c0-0.5,0.4-0.9,0.9-0.9c0.5,0,0.9,0.4,0.9,0.9c0,0.5-0.4,0.9-0.9,0.9
		C68.7,81.3,68.3,80.9,68.3,80.4L68.3,80.4z"/>
	<path fill="#E9E8F3" d="M61.6,80.5c0-0.5,0.4-0.9,0.9-0.9c0.5,0,0.9,0.4,0.9,0.9c0,0.5-0.4,0.9-0.9,0.9C62,81.4,61.6,81,61.6,80.5
		L61.6,80.5z"/>
	<path fill="#E9E8F3" d="M58.1,80.5c0-0.5,0.4-1,1-1c0.5,0,1,0.4,1,1c0,0.5-0.4,1-1,1C58.5,81.5,58.1,81,58.1,80.5L58.1,80.5z"/>
	<path fill="#E9E8F3" d="M51.2,80.5c0-0.5,0.4-1,1-1c0.5,0,1,0.4,1,1c0,0.5-0.4,1-1,1C51.6,81.5,51.2,81,51.2,80.5L51.2,80.5z"/>
	<path fill="#E9E8F3" d="M53,78.8c0-0.5,0.4-0.9,0.9-0.9c0.5,0,0.9,0.4,0.9,0.9c0,0.5-0.4,0.9-0.9,0.9C53.3,79.7,53,79.3,53,78.8
		L53,78.8z"/>
	<path fill="#E9E8F3" d="M49.6,82.2c0-0.5,0.4-0.9,0.9-0.9c0.5,0,0.9,0.4,0.9,0.9c0,0.5-0.4,0.9-0.9,0.9C50,83,49.6,82.6,49.6,82.2
		L49.6,82.2z"/>
	<path fill="#E9E8F3" d="M63.4,78.8c0-0.4,0.3-0.8,0.8-0.8c0.4,0,0.8,0.3,0.8,0.8c0,0.4-0.3,0.8-0.8,0.8
		C63.7,79.5,63.4,79.2,63.4,78.8L63.4,78.8z"/>
	<path fill="#E9E8F3" d="M72,77c0-0.3,0.3-0.6,0.6-0.6c0.3,0,0.6,0.3,0.6,0.6c0,0.3-0.3,0.6-0.6,0.6C72.3,77.6,72,77.4,72,77L72,77z
		"/>
	<path fill="#E9E8F3" d="M68.7,73.7c0-0.3,0.3-0.6,0.6-0.6c0.3,0,0.6,0.3,0.6,0.6c0,0.3-0.3,0.6-0.6,0.6C69,74.2,68.7,74,68.7,73.7
		L68.7,73.7z"/>
	<path fill="#E9E8F3" d="M67,75.3c0-0.3,0.3-0.6,0.6-0.6c0.3,0,0.6,0.3,0.6,0.6c0,0.3-0.3,0.6-0.6,0.6C67.2,75.9,67,75.6,67,75.3
		L67,75.3z"/>
	<path fill="#E9E8F3" d="M65.3,77.1c0-0.3,0.3-0.6,0.6-0.6c0.3,0,0.6,0.3,0.6,0.6c0,0.3-0.3,0.6-0.6,0.6
		C65.5,77.7,65.3,77.4,65.3,77.1L65.3,77.1z"/>
	<path fill="#E9E8F3" d="M65.3,80.4c0-0.3,0.3-0.6,0.6-0.6c0.3,0,0.6,0.3,0.6,0.6c0,0.3-0.3,0.6-0.6,0.6
		C65.5,81,65.3,80.7,65.3,80.4L65.3,80.4z"/>
	<path fill="#E9E8F3" d="M67,82.1c0-0.3,0.3-0.6,0.6-0.6c0.3,0,0.6,0.3,0.6,0.6c0,0.3-0.3,0.6-0.6,0.6C67.3,82.7,67,82.5,67,82.1
		L67,82.1z"/>
	<path fill="#E9E8F3" d="M58.5,77.1c0-0.3,0.3-0.6,0.6-0.6c0.3,0,0.6,0.3,0.6,0.6c0,0.3-0.3,0.6-0.6,0.6
		C58.7,77.7,58.5,77.5,58.5,77.1L58.5,77.1z"/>
	<path fill="#E9E8F3" d="M55.1,77.1c0-0.3,0.3-0.6,0.6-0.6c0.3,0,0.6,0.3,0.6,0.6c0,0.3-0.3,0.6-0.6,0.6
		C55.3,77.7,55.1,77.4,55.1,77.1L55.1,77.1z"/>
	<path fill="#E9E8F3" d="M48.3,83.8c0-0.3,0.3-0.6,0.6-0.6c0.3,0,0.6,0.3,0.6,0.6c0,0.3-0.3,0.6-0.6,0.6
		C48.5,84.4,48.3,84.2,48.3,83.8L48.3,83.8z"/>
	<path fill="#E9E8F3" d="M49.9,85.6c0-0.3,0.3-0.6,0.6-0.6c0.3,0,0.6,0.3,0.6,0.6c0,0.3-0.3,0.6-0.6,0.6
		C50.2,86.1,49.9,85.9,49.9,85.6L49.9,85.6z"/>
	<path fill="#E9E8F3" d="M56.5,82.2c0-0.4,0.4-0.8,0.8-0.8c0.4,0,0.8,0.4,0.8,0.8c0,0.4-0.4,0.8-0.8,0.8
		C56.9,83,56.5,82.6,56.5,82.2L56.5,82.2z"/>
	<path fill="#E9E8F3" d="M51.1,83.9c0-0.6,0.5-1,1-1c0.6,0,1,0.5,1,1c0,0.6-0.5,1-1,1C51.6,84.9,51.1,84.5,51.1,83.9L51.1,83.9z"/>
	<path fill="#E9E8F3" d="M52.8,82.1c0-0.6,0.5-1.1,1.1-1.1s1.1,0.5,1.1,1.1c0,0.6-0.5,1.1-1.1,1.1S52.8,82.8,52.8,82.1L52.8,82.1z"
		/>
	<path fill="#E9E8F3" d="M54.5,80.5c0-0.6,0.5-1.1,1.1-1.1c0.6,0,1.1,0.5,1.1,1.1c0,0.6-0.5,1.1-1.1,1.1
		C55,81.6,54.5,81.1,54.5,80.5L54.5,80.5z"/>
	<path fill="#E9E8F3" d="M51.8,87.2c0-0.2,0.2-0.4,0.4-0.4c0.2,0,0.4,0.2,0.4,0.4c0,0.2-0.2,0.4-0.4,0.4
		C52,87.7,51.8,87.5,51.8,87.2L51.8,87.2z"/>
	<path fill="#E9E8F3" d="M55.2,87.2c0-0.2,0.2-0.4,0.4-0.4c0.2,0,0.4,0.2,0.4,0.4c0,0.2-0.2,0.4-0.4,0.4
		C55.4,87.7,55.2,87.5,55.2,87.2L55.2,87.2z"/>
	<path fill="#E9E8F3" d="M57,85.5c0-0.2,0.2-0.4,0.4-0.4c0.2,0,0.4,0.2,0.4,0.4c0,0.2-0.2,0.4-0.4,0.4C57.1,85.9,57,85.7,57,85.5
		L57,85.5z"/>
	<path fill="#E9E8F3" d="M60.3,82.1c0-0.2,0.2-0.4,0.4-0.4c0.2,0,0.4,0.2,0.4,0.4c0,0.2-0.2,0.4-0.4,0.4
		C60.5,82.5,60.3,82.3,60.3,82.1L60.3,82.1z"/>
	<path fill="#E9E8F3" d="M62,77.1c0-0.2,0.2-0.4,0.4-0.4c0.2,0,0.4,0.2,0.4,0.4c0,0.2-0.2,0.4-0.4,0.4C62.2,77.5,62,77.3,62,77.1
		L62,77.1z"/>
	<path fill="#E9E8F3" d="M67.2,71.9c0-0.2,0.2-0.4,0.4-0.4c0.2,0,0.4,0.2,0.4,0.4c0,0.2-0.2,0.4-0.4,0.4
		C67.4,72.4,67.2,72.2,67.2,71.9L67.2,71.9z"/>
	<path fill="#E9E8F3" d="M72.2,80.4c0-0.2,0.2-0.4,0.4-0.4c0.2,0,0.4,0.2,0.4,0.4c0,0.2-0.2,0.4-0.4,0.4
		C72.4,80.8,72.2,80.7,72.2,80.4L72.2,80.4z"/>
	<path fill="#E9E8F3" d="M70.5,82.2c0-0.2,0.2-0.4,0.4-0.4c0.2,0,0.4,0.2,0.4,0.4c0,0.2-0.2,0.4-0.4,0.4
		C70.7,82.6,70.5,82.4,70.5,82.2L70.5,82.2z"/>
	<path fill="#E9E8F3" d="M51.8,77.1c0-0.2,0.2-0.4,0.4-0.4c0.2,0,0.4,0.2,0.4,0.4c0,0.2-0.2,0.4-0.4,0.4
		C52,77.5,51.8,77.3,51.8,77.1L51.8,77.1z"/>
	<path fill="#E9E8F3" d="M50,78.7c0-0.2,0.2-0.4,0.4-0.4c0.2,0,0.4,0.2,0.4,0.4c0,0.2-0.2,0.4-0.4,0.4C50.2,79.2,50,79,50,78.7
		L50,78.7z"/>
	<path fill="#E9E8F3" d="M48.4,80.5c0-0.2,0.2-0.4,0.4-0.4c0.2,0,0.4,0.2,0.4,0.4c0,0.2-0.2,0.4-0.4,0.4
		C48.6,80.9,48.4,80.7,48.4,80.5L48.4,80.5z"/>
	<path fill="#E9E8F3" d="M46.8,82.2c0-0.2,0.2-0.4,0.4-0.4c0.2,0,0.4,0.2,0.4,0.4c0,0.2-0.2,0.4-0.4,0.4
		C46.9,82.6,46.8,82.4,46.8,82.2L46.8,82.2z"/>
	<path fill="#E9E8F3" d="M69,70.2c0-0.2,0.1-0.3,0.3-0.3c0.2,0,0.3,0.1,0.3,0.3c0,0.2-0.1,0.3-0.3,0.3C69.1,70.6,69,70.4,69,70.2
		L69,70.2z"/>
	<path fill="#E9E8F3" d="M70.6,72c0-0.2,0.1-0.3,0.3-0.3c0.2,0,0.3,0.1,0.3,0.3c0,0.2-0.1,0.3-0.3,0.3C70.8,72.3,70.6,72.1,70.6,72
		L70.6,72z"/>
	<path fill="#E9E8F3" d="M72.3,73.6c0-0.2,0.1-0.3,0.3-0.3c0.2,0,0.3,0.1,0.3,0.3c0,0.2-0.1,0.3-0.3,0.3
		C72.5,73.9,72.3,73.8,72.3,73.6L72.3,73.6z"/>
	<path fill="#E9E8F3" d="M65.6,73.7c0-0.2,0.1-0.3,0.3-0.3c0.2,0,0.3,0.1,0.3,0.3c0,0.2-0.1,0.3-0.3,0.3
		C65.7,74,65.6,73.9,65.6,73.7L65.6,73.7z"/>
	<path fill="#E9E8F3" d="M63.9,75.4c0-0.2,0.1-0.3,0.3-0.3c0.2,0,0.3,0.1,0.3,0.3c0,0.2-0.1,0.3-0.3,0.3
		C64,75.7,63.9,75.6,63.9,75.4L63.9,75.4z"/>
	<path fill="#E9E8F3" d="M53.6,75.4c0-0.2,0.1-0.3,0.3-0.3c0.2,0,0.3,0.1,0.3,0.3c0,0.2-0.1,0.3-0.3,0.3
		C53.8,75.8,53.6,75.6,53.6,75.4L53.6,75.4z"/>
	<path fill="#E9E8F3" d="M63.9,82.2c0-0.2,0.2-0.4,0.4-0.4c0.2,0,0.4,0.2,0.4,0.4c0,0.2-0.2,0.4-0.4,0.4
		C64,82.6,63.9,82.4,63.9,82.2L63.9,82.2z"/>
	<path fill="#E9E8F3" d="M45.1,83.8c0-0.2,0.1-0.3,0.3-0.3c0.2,0,0.3,0.1,0.3,0.3c0,0.2-0.1,0.3-0.3,0.3
		C45.2,84.1,45.1,84,45.1,83.8L45.1,83.8z"/>
	<path fill="#E9E8F3" d="M45.1,80.4c0-0.2,0.1-0.3,0.3-0.3c0.2,0,0.3,0.1,0.3,0.3c0,0.2-0.1,0.3-0.3,0.3
		C45.3,80.7,45.1,80.6,45.1,80.4L45.1,80.4z"/>
	<path fill="#E9E8F3" d="M27.4,46.4c0-0.6,0.5-1.1,1.1-1.1c0.6,0,1.1,0.5,1.1,1.1c0,0.6-0.5,1.1-1.1,1.1
		C27.9,47.5,27.4,47,27.4,46.4L27.4,46.4z"/>
	<path fill="#E9E8F3" d="M29.2,48.1c0-0.6,0.5-1,1-1c0.6,0,1,0.5,1,1c0,0.6-0.5,1-1,1C29.6,49.1,29.2,48.7,29.2,48.1L29.2,48.1z"/>
	<path fill="#E9E8F3" d="M30.8,46.4c0-0.6,0.5-1,1-1c0.6,0,1,0.5,1,1c0,0.6-0.5,1-1,1C31.3,47.4,30.8,47,30.8,46.4L30.8,46.4z"/>
	<path fill="#E9E8F3" d="M25.8,48.1c0-0.6,0.5-1,1-1s1,0.5,1,1c0,0.6-0.5,1-1,1S25.8,48.7,25.8,48.1L25.8,48.1z"/>
	<path fill="#E9E8F3" d="M24.1,46.5c0-0.6,0.5-1,1-1c0.6,0,1,0.5,1,1c0,0.6-0.5,1-1,1C24.5,47.5,24.1,47,24.1,46.5L24.1,46.5z"/>
	<path fill="#E9E8F3" d="M22.3,48.1c0-0.6,0.5-1,1-1c0.6,0,1,0.5,1,1c0,0.6-0.5,1-1,1C22.7,49.1,22.3,48.6,22.3,48.1L22.3,48.1z"/>
	<path fill="#E9E8F3" d="M20.6,49.8c0-0.6,0.5-1,1-1c0.6,0,1,0.5,1,1c0,0.6-0.5,1-1,1C21.1,50.9,20.6,50.4,20.6,49.8L20.6,49.8z"/>
	<path fill="#E9E8F3" d="M19,48.2c0-0.6,0.5-1,1-1c0.6,0,1,0.5,1,1c0,0.6-0.5,1-1,1C19.4,49.2,19,48.7,19,48.2L19,48.2z"/>
	<path fill="#E9E8F3" d="M29.2,44.7c0-0.5,0.4-0.9,0.9-0.9c0.5,0,0.9,0.4,0.9,0.9c0,0.5-0.4,0.9-0.9,0.9
		C29.6,45.7,29.2,45.3,29.2,44.7L29.2,44.7z"/>
	<path fill="#E9E8F3" d="M32.8,44.8c0-0.4,0.4-0.8,0.8-0.8c0.4,0,0.8,0.4,0.8,0.8c0,0.4-0.4,0.8-0.8,0.8
		C33.1,45.6,32.8,45.2,32.8,44.8L32.8,44.8z"/>
	<path fill="#E9E8F3" d="M36.3,44.7c0-0.3,0.3-0.6,0.6-0.6c0.3,0,0.6,0.3,0.6,0.6c0,0.3-0.3,0.6-0.6,0.6
		C36.6,45.3,36.3,45.1,36.3,44.7L36.3,44.7z"/>
	<path fill="#E9E8F3" d="M25.9,44.7c0-0.4,0.4-0.8,0.8-0.8c0.4,0,0.8,0.4,0.8,0.8c0,0.4-0.4,0.8-0.8,0.8
		C26.3,45.5,25.9,45.2,25.9,44.7L25.9,44.7z"/>
	<path fill="#E9E8F3" d="M27.7,49.8c0-0.4,0.4-0.8,0.8-0.8c0.4,0,0.8,0.4,0.8,0.8s-0.4,0.8-0.8,0.8C28.1,50.6,27.7,50.2,27.7,49.8
		L27.7,49.8z"/>
	<path fill="#E9E8F3" d="M24.3,49.8c0-0.4,0.4-0.8,0.8-0.8c0.4,0,0.8,0.4,0.8,0.8c0,0.4-0.4,0.8-0.8,0.8
		C24.6,50.6,24.3,50.3,24.3,49.8L24.3,49.8z"/>
	<path fill="#E9E8F3" d="M32.8,48.2c0-0.4,0.3-0.7,0.7-0.7c0.4,0,0.7,0.3,0.7,0.7c0,0.4-0.3,0.7-0.7,0.7
		C33.1,48.9,32.8,48.6,32.8,48.2L32.8,48.2z"/>
	<path fill="#E9E8F3" d="M31.2,49.9c0-0.3,0.3-0.6,0.6-0.6c0.3,0,0.6,0.3,0.6,0.6c0,0.3-0.3,0.6-0.6,0.6
		C31.5,50.5,31.2,50.2,31.2,49.9L31.2,49.9z"/>
	<path fill="#E9E8F3" d="M34.7,46.5c0-0.3,0.3-0.6,0.6-0.6c0.3,0,0.6,0.3,0.6,0.6c0,0.3-0.3,0.6-0.6,0.6
		C34.9,47,34.7,46.8,34.7,46.5L34.7,46.5z"/>
	<path fill="#E9E8F3" d="M22.8,44.7c0-0.3,0.3-0.6,0.6-0.6c0.3,0,0.6,0.3,0.6,0.6c0,0.3-0.3,0.6-0.6,0.6
		C23,45.3,22.8,45.1,22.8,44.7L22.8,44.7z"/>
	<path fill="#E9E8F3" d="M31.3,43c0-0.3,0.2-0.5,0.5-0.5c0.3,0,0.5,0.2,0.5,0.5c0,0.3-0.2,0.5-0.5,0.5C31.5,43.5,31.3,43.3,31.3,43
		L31.3,43z"/>
	<path fill="#E9E8F3" d="M34.7,43c0-0.3,0.2-0.5,0.5-0.5c0.3,0,0.5,0.2,0.5,0.5c0,0.3-0.2,0.5-0.5,0.5C34.9,43.5,34.7,43.3,34.7,43
		L34.7,43z"/>
	<path fill="#E9E8F3" d="M19.3,51.5c0-0.4,0.3-0.6,0.6-0.6c0.4,0,0.6,0.3,0.6,0.6c0,0.4-0.3,0.6-0.6,0.6
		C19.6,52.2,19.3,51.9,19.3,51.5L19.3,51.5z"/>
	<path fill="#E9E8F3" d="M17.5,49.9c0-0.4,0.3-0.8,0.8-0.8c0.4,0,0.8,0.3,0.8,0.8c0,0.4-0.3,0.8-0.8,0.8
		C17.8,50.6,17.5,50.3,17.5,49.9L17.5,49.9z"/>
	<path fill="#E9E8F3" d="M20.9,46.5c0-0.4,0.3-0.8,0.8-0.8c0.4,0,0.8,0.3,0.8,0.8c0,0.4-0.3,0.8-0.8,0.8
		C21.2,47.2,20.9,46.9,20.9,46.5L20.9,46.5z"/>
	<path fill="#E9E8F3" d="M26.3,51.6c0-0.3,0.2-0.5,0.5-0.5c0.3,0,0.5,0.2,0.5,0.5c0,0.3-0.2,0.5-0.5,0.5
		C26.5,52,26.3,51.8,26.3,51.6L26.3,51.6z"/>
	<path fill="#E9E8F3" d="M22.9,51.5c0-0.2,0.2-0.5,0.5-0.5c0.3,0,0.5,0.2,0.5,0.5c0,0.3-0.2,0.5-0.5,0.5
		C23.1,52,22.9,51.8,22.9,51.5L22.9,51.5z"/>
	<path fill="#E9E8F3" d="M16.1,51.6c0-0.2,0.2-0.4,0.4-0.4c0.2,0,0.4,0.2,0.4,0.4c0,0.2-0.2,0.4-0.4,0.4
		C16.3,52,16.1,51.8,16.1,51.6L16.1,51.6z"/>
	<path fill="#E9E8F3" d="M30.6,51.5c0,0.2-0.2,0.4-0.4,0.4c-0.2,0-0.4-0.2-0.4-0.4c0-0.2,0.2-0.4,0.4-0.4
		C30.4,51.1,30.6,51.3,30.6,51.5L30.6,51.5z"/>
	<path fill="#E9E8F3" d="M28.9,53.2c0,0.2-0.2,0.4-0.4,0.4c-0.2,0-0.4-0.2-0.4-0.4c0-0.2,0.2-0.4,0.4-0.4
		C28.7,52.8,28.9,53,28.9,53.2L28.9,53.2z"/>
	<path fill="#E9E8F3" d="M39.1,46.5c0,0.2-0.2,0.4-0.4,0.4c-0.2,0-0.4-0.2-0.4-0.4c0-0.2,0.2-0.4,0.4-0.4
		C38.9,46.1,39.1,46.2,39.1,46.5L39.1,46.5z"/>
	<path fill="#E9E8F3" d="M40.7,44.7c0,0.2-0.2,0.4-0.4,0.4c-0.2,0-0.4-0.2-0.4-0.4c0-0.2,0.2-0.4,0.4-0.4
		C40.6,44.4,40.7,44.5,40.7,44.7L40.7,44.7z"/>
	<path fill="#E9E8F3" d="M39,43.1c0,0.2-0.2,0.4-0.4,0.4c-0.2,0-0.4-0.2-0.4-0.4c0-0.2,0.2-0.4,0.4-0.4C38.9,42.7,39,42.9,39,43.1
		L39,43.1z"/>
	<path fill="#E9E8F3" d="M17.8,46.5c0-0.2,0.2-0.4,0.4-0.4c0.2,0,0.4,0.2,0.4,0.4c0,0.2-0.2,0.4-0.4,0.4
		C18,46.9,17.8,46.7,17.8,46.5L17.8,46.5z"/>
	<path fill="#E9E8F3" d="M16.2,48.1c0-0.2,0.2-0.4,0.4-0.4c0.2,0,0.4,0.2,0.4,0.4c0,0.2-0.2,0.4-0.4,0.4
		C16.3,48.5,16.2,48.3,16.2,48.1L16.2,48.1z"/>
	<path fill="#E9E8F3" d="M18.1,53.3c0-0.1,0.1-0.2,0.2-0.2c0.1,0,0.2,0.1,0.2,0.2c0,0.1-0.1,0.2-0.2,0.2
		C18.1,53.5,18.1,53.4,18.1,53.3L18.1,53.3z"/>
	<path fill="#E9E8F3" d="M21.5,53.2c0-0.1,0.1-0.2,0.2-0.2c0.1,0,0.2,0.1,0.2,0.2c0,0.1-0.1,0.2-0.2,0.2
		C21.6,53.4,21.5,53.3,21.5,53.2L21.5,53.2z"/>
	<path fill="#E9E8F3" d="M24.9,53.2c0-0.1,0.1-0.2,0.2-0.2c0.1,0,0.2,0.1,0.2,0.2c0,0.1-0.1,0.2-0.2,0.2
		C24.9,53.4,24.9,53.3,24.9,53.2L24.9,53.2z"/>
	<path fill="#E9E8F3" d="M31.6,53.2c0-0.1,0.1-0.2,0.2-0.2c0.1,0,0.2,0.1,0.2,0.2c0,0.1-0.1,0.2-0.2,0.2
		C31.7,53.4,31.6,53.3,31.6,53.2L31.6,53.2z"/>
	<path fill="#E9E8F3" d="M33.3,51.5c0-0.1,0.1-0.2,0.2-0.2c0.1,0,0.2,0.1,0.2,0.2c0,0.1-0.1,0.2-0.2,0.2
		C33.4,51.7,33.3,51.7,33.3,51.5L33.3,51.5z"/>
	<path fill="#E9E8F3" d="M35,49.9c0-0.1,0.1-0.2,0.2-0.2c0.1,0,0.2,0.1,0.2,0.2c0,0.1-0.1,0.2-0.2,0.2C35.1,50.1,35,50,35,49.9
		L35,49.9z"/>
	<path fill="#E9E8F3" d="M99.2,29.5c0-0.4,0.3-0.6,0.6-0.6c0.4,0,0.6,0.3,0.6,0.6c0,0.4-0.3,0.6-0.6,0.6
		C99.5,30.1,99.2,29.9,99.2,29.5L99.2,29.5z"/>
	<path fill="#E9E8F3" d="M101.1,27.8c0-0.4,0.3-0.6,0.6-0.6c0.4,0,0.6,0.3,0.6,0.6c0,0.4-0.3,0.6-0.6,0.6
		C101.4,28.4,101.1,28.1,101.1,27.8L101.1,27.8z"/>
	<path fill="#E9E8F3" d="M102.8,26c0-0.4,0.3-0.6,0.6-0.6c0.4,0,0.6,0.3,0.6,0.6c0,0.4-0.3,0.6-0.6,0.6
		C103.1,26.7,102.8,26.4,102.8,26L102.8,26z"/>
	<path fill="#E9E8F3" d="M104.5,24.3c0-0.4,0.3-0.6,0.6-0.6c0.4,0,0.6,0.3,0.6,0.6c0,0.4-0.3,0.6-0.6,0.6
		C104.8,25,104.5,24.7,104.5,24.3L104.5,24.3z"/>
	<path fill="#E9E8F3" d="M106.2,22.6c0-0.4,0.3-0.6,0.6-0.6c0.4,0,0.6,0.3,0.6,0.6c0,0.4-0.3,0.6-0.6,0.6
		C106.5,23.2,106.2,22.9,106.2,22.6L106.2,22.6z"/>
	<path fill="#E9E8F3" d="M107.9,21c0-0.4,0.3-0.6,0.6-0.6c0.4,0,0.6,0.3,0.6,0.6c0,0.4-0.3,0.6-0.6,0.6
		C108.2,21.6,107.9,21.3,107.9,21L107.9,21z"/>
	<path fill="#E9E8F3" d="M109.5,19.2c0-0.4,0.3-0.6,0.6-0.6c0.4,0,0.6,0.3,0.6,0.6c0,0.4-0.3,0.6-0.6,0.6
		C109.8,19.9,109.5,19.6,109.5,19.2L109.5,19.2z"/>
	<path fill="#E9E8F3" d="M111.1,17.5c0-0.4,0.3-0.7,0.7-0.7c0.4,0,0.7,0.3,0.7,0.7c0,0.4-0.3,0.7-0.7,0.7
		C111.5,18.2,111.1,17.9,111.1,17.5L111.1,17.5z"/>
	<path fill="#E9E8F3" d="M112.9,19.2c0-0.4,0.3-0.6,0.6-0.6c0.4,0,0.6,0.3,0.6,0.6c0,0.4-0.3,0.6-0.6,0.6
		C113.2,19.9,112.9,19.6,112.9,19.2L112.9,19.2z"/>
	<path fill="#E9E8F3" d="M114.7,20.9c0-0.4,0.3-0.6,0.6-0.6s0.6,0.3,0.6,0.6c0,0.4-0.3,0.6-0.6,0.6S114.7,21.3,114.7,20.9
		L114.7,20.9z"/>
	<path fill="#E9E8F3" d="M113,22.7c0-0.4,0.3-0.6,0.6-0.6c0.4,0,0.6,0.3,0.6,0.6c0,0.4-0.3,0.6-0.6,0.6C113.3,23.3,113,23,113,22.7
		L113,22.7z"/>
	<path fill="#E9E8F3" d="M111.3,20.9c0-0.4,0.3-0.6,0.6-0.6c0.4,0,0.6,0.3,0.6,0.6c0,0.4-0.3,0.6-0.6,0.6
		C111.6,21.6,111.3,21.3,111.3,20.9L111.3,20.9z"/>
	<path fill="#E9E8F3" d="M114.6,24.3c0-0.3,0.3-0.6,0.6-0.6c0.3,0,0.6,0.3,0.6,0.6c0,0.3-0.3,0.6-0.6,0.6
		C114.9,24.9,114.6,24.6,114.6,24.3L114.6,24.3z"/>
	<path fill="#E9E8F3" d="M111.4,24.3c0-0.3,0.2-0.5,0.5-0.5c0.3,0,0.5,0.2,0.5,0.5c0,0.3-0.2,0.5-0.5,0.5
		C111.6,24.9,111.4,24.6,111.4,24.3L111.4,24.3z"/>
	<path fill="#E9E8F3" d="M109.7,22.6c0-0.3,0.2-0.5,0.5-0.5c0.3,0,0.5,0.2,0.5,0.5c0,0.3-0.2,0.5-0.5,0.5
		C109.9,23.2,109.7,22.9,109.7,22.6L109.7,22.6z"/>
	<path fill="#E9E8F3" d="M108,24.3c0-0.3,0.2-0.5,0.5-0.5c0.3,0,0.5,0.2,0.5,0.5c0,0.3-0.2,0.5-0.5,0.5
		C108.2,24.9,108,24.6,108,24.3L108,24.3z"/>
	<path fill="#E9E8F3" d="M113.1,26.1c0-0.3,0.2-0.5,0.5-0.5c0.3,0,0.5,0.2,0.5,0.5c0,0.3-0.2,0.5-0.5,0.5
		C113.3,26.6,113.1,26.3,113.1,26.1L113.1,26.1z"/>
	<path fill="#E9E8F3" d="M111.4,27.7c0-0.2,0.2-0.4,0.4-0.4c0.2,0,0.4,0.2,0.4,0.4c0,0.2-0.2,0.4-0.4,0.4
		C111.6,28.1,111.4,27.9,111.4,27.7L111.4,27.7z"/>
	<path fill="#E9E8F3" d="M109.8,26c0-0.2,0.2-0.4,0.4-0.4s0.4,0.2,0.4,0.4c0,0.2-0.2,0.4-0.4,0.4S109.8,26.2,109.8,26L109.8,26z"/>
	<path fill="#E9E8F3" d="M106.3,26c0-0.2,0.2-0.4,0.4-0.4c0.2,0,0.4,0.2,0.4,0.4c0,0.2-0.2,0.4-0.4,0.4
		C106.5,26.5,106.3,26.3,106.3,26L106.3,26z"/>
	<path fill="#E9E8F3" d="M104.5,27.7c0-0.2,0.2-0.4,0.4-0.4c0.2,0,0.4,0.2,0.4,0.4c0,0.2-0.2,0.4-0.4,0.4
		C104.7,28.1,104.5,27.9,104.5,27.7L104.5,27.7z"/>
	<path fill="#E9E8F3" d="M107.9,27.7c0-0.2,0.2-0.4,0.4-0.4c0.2,0,0.4,0.2,0.4,0.4c0,0.2-0.2,0.4-0.4,0.4
		C108.1,28.2,107.9,28,107.9,27.7L107.9,27.7z"/>
	<path fill="#E9E8F3" d="M106.3,29.4c0-0.2,0.2-0.4,0.4-0.4c0.2,0,0.4,0.2,0.4,0.4c0,0.2-0.2,0.4-0.4,0.4
		C106.4,29.8,106.3,29.6,106.3,29.4L106.3,29.4z"/>
	<path fill="#E9E8F3" d="M104.6,31.2c0-0.2,0.2-0.4,0.4-0.4c0.2,0,0.4,0.2,0.4,0.4c0,0.2-0.2,0.4-0.4,0.4
		C104.7,31.6,104.6,31.4,104.6,31.2L104.6,31.2z"/>
	<path fill="#E9E8F3" d="M109.7,29.4c0-0.2,0.2-0.4,0.4-0.4c0.2,0,0.4,0.2,0.4,0.4c0,0.2-0.2,0.4-0.4,0.4
		C109.9,29.8,109.7,29.6,109.7,29.4L109.7,29.4z"/>
	<path fill="#E9E8F3" d="M108,31.1c0-0.2,0.2-0.4,0.4-0.4c0.2,0,0.4,0.2,0.4,0.4c0,0.2-0.2,0.4-0.4,0.4
		C108.2,31.5,108,31.3,108,31.1L108,31.1z"/>
	<path fill="#E9E8F3" d="M106.4,32.9c0-0.1,0.1-0.3,0.3-0.3s0.3,0.1,0.3,0.3c0,0.2-0.1,0.3-0.3,0.3S106.4,33.1,106.4,32.9
		L106.4,32.9z"/>
	<path fill="#E9E8F3" d="M104.7,34.5c0-0.2,0.1-0.3,0.3-0.3c0.1,0,0.3,0.1,0.3,0.3c0,0.1-0.1,0.3-0.3,0.3
		C104.8,34.8,104.7,34.6,104.7,34.5L104.7,34.5z"/>
	<path fill="#E9E8F3" d="M101.2,34.5c0-0.2,0.1-0.3,0.3-0.3c0.2,0,0.3,0.2,0.3,0.3c0,0.2-0.2,0.3-0.3,0.3
		C101.4,34.8,101.2,34.7,101.2,34.5L101.2,34.5z"/>
	<path fill="#E9E8F3" d="M104.4,20.9c0-0.4,0.3-0.6,0.6-0.6c0.4,0,0.6,0.3,0.6,0.6c0,0.4-0.3,0.6-0.6,0.6
		C104.7,21.6,104.4,21.3,104.4,20.9L104.4,20.9z"/>
	<path fill="#E9E8F3" d="M102.8,22.6c0-0.3,0.3-0.6,0.6-0.6c0.3,0,0.6,0.3,0.6,0.6c0,0.3-0.3,0.6-0.6,0.6
		C103,23.2,102.8,23,102.8,22.6L102.8,22.6z"/>
	<path fill="#E9E8F3" d="M101.2,24.3c0-0.3,0.2-0.5,0.5-0.5c0.3,0,0.5,0.2,0.5,0.5c0,0.3-0.2,0.5-0.5,0.5
		C101.5,24.8,101.2,24.6,101.2,24.3L101.2,24.3z"/>
	<path fill="#E9E8F3" d="M99.5,26c0-0.2,0.2-0.5,0.5-0.5c0.2,0,0.5,0.2,0.5,0.5c0,0.3-0.2,0.5-0.5,0.5C99.7,26.4,99.5,26.2,99.5,26
		L99.5,26z"/>
	<path fill="#E9E8F3" d="M97.8,24.3c0-0.3,0.2-0.5,0.5-0.5c0.3,0,0.5,0.2,0.5,0.5c0,0.3-0.2,0.5-0.5,0.5
		C98,24.7,97.8,24.5,97.8,24.3L97.8,24.3z"/>
	<path fill="#E9E8F3" d="M96.1,26c0-0.3,0.2-0.5,0.5-0.5c0.3,0,0.5,0.2,0.5,0.5c0,0.3-0.2,0.5-0.5,0.5C96.3,26.5,96.1,26.3,96.1,26
		L96.1,26z"/>
	<path fill="#E9E8F3" d="M99.5,22.6c0-0.3,0.2-0.5,0.5-0.5c0.2,0,0.5,0.2,0.5,0.5c0,0.3-0.2,0.5-0.5,0.5
		C99.7,23.1,99.5,22.9,99.5,22.6L99.5,22.6z"/>
	<path fill="#E9E8F3" d="M97.8,21c0-0.3,0.2-0.5,0.5-0.5c0.3,0,0.5,0.2,0.5,0.5c0,0.3-0.2,0.5-0.5,0.5C98,21.4,97.8,21.2,97.8,21
		L97.8,21z"/>
	<path fill="#E9E8F3" d="M96.1,22.6c0-0.3,0.2-0.5,0.5-0.5c0.2,0,0.5,0.2,0.5,0.5c0,0.3-0.2,0.5-0.5,0.5
		C96.3,23.1,96.1,22.9,96.1,22.6L96.1,22.6z"/>
	<path fill="#E9E8F3" d="M96.1,19.3c0-0.3,0.2-0.5,0.5-0.5c0.2,0,0.5,0.2,0.5,0.5c0,0.3-0.2,0.5-0.5,0.5
		C96.3,19.7,96.1,19.5,96.1,19.3L96.1,19.3z"/>
	<path fill="#E9E8F3" d="M99.4,19.2c0-0.3,0.3-0.6,0.6-0.6c0.3,0,0.6,0.3,0.6,0.6c0,0.3-0.3,0.6-0.6,0.6
		C99.6,19.8,99.4,19.6,99.4,19.2L99.4,19.2z"/>
	<path fill="#E9E8F3" d="M101.1,20.9c0-0.3,0.3-0.6,0.6-0.6c0.3,0,0.6,0.3,0.6,0.6c0,0.3-0.3,0.6-0.6,0.6
		C101.3,21.4,101.1,21.2,101.1,20.9L101.1,20.9z"/>
	<path fill="#E9E8F3" d="M102.7,19.2c0-0.4,0.3-0.7,0.7-0.7c0.4,0,0.7,0.3,0.7,0.7c0,0.4-0.3,0.7-0.7,0.7
		C103,19.9,102.7,19.6,102.7,19.2L102.7,19.2z"/>
	<path fill="#E9E8F3" d="M106,19.2c0-0.4,0.3-0.7,0.7-0.7c0.4,0,0.7,0.3,0.7,0.7c0,0.4-0.3,0.7-0.7,0.7
		C106.4,19.9,106,19.6,106,19.2L106,19.2z"/>
	<path fill="#E9E8F3" d="M100.8,31.1c0-0.4,0.3-0.7,0.7-0.7c0.4,0,0.7,0.3,0.7,0.7c0,0.4-0.3,0.7-0.7,0.7
		C101.1,31.9,100.8,31.6,100.8,31.1L100.8,31.1z"/>
	<path fill="#E9E8F3" d="M92.9,22.6c0-0.2,0.1-0.3,0.3-0.3c0.2,0,0.3,0.1,0.3,0.3c0,0.2-0.1,0.3-0.3,0.3
		C93,22.9,92.9,22.7,92.9,22.6L92.9,22.6z"/>
	<path fill="#E9E8F3" d="M94.6,20.9c0-0.2,0.1-0.3,0.3-0.3c0.2,0,0.3,0.1,0.3,0.3c0,0.2-0.1,0.3-0.3,0.3
		C94.7,21.2,94.6,21.1,94.6,20.9L94.6,20.9z"/>
	<path fill="#E9E8F3" d="M91.2,20.9c0-0.2,0.1-0.3,0.3-0.3c0.2,0,0.3,0.1,0.3,0.3c0,0.2-0.1,0.3-0.3,0.3
		C91.3,21.2,91.2,21.1,91.2,20.9L91.2,20.9z"/>
	<path fill="#E9E8F3" d="M89.5,22.6c0-0.2,0.1-0.3,0.3-0.3c0.2,0,0.3,0.1,0.3,0.3c0,0.2-0.1,0.3-0.3,0.3
		C89.6,22.9,89.5,22.8,89.5,22.6L89.5,22.6z"/>
	<path fill="#E9E8F3" d="M92.8,19.2c0-0.2,0.2-0.4,0.4-0.4c0.2,0,0.4,0.2,0.4,0.4c0,0.2-0.2,0.4-0.4,0.4
		C93,19.5,92.8,19.4,92.8,19.2L92.8,19.2z"/>
	<path fill="#E9E8F3" d="M92.1,17.5c0,0.4-0.3,0.6-0.6,0.6c-0.4,0-0.6-0.3-0.6-0.6c0-0.4,0.3-0.6,0.6-0.6
		C91.8,16.9,92.1,17.2,92.1,17.5L92.1,17.5z"/>
	<path fill="#E9E8F3" d="M95.3,24.3c0,0.2-0.2,0.4-0.4,0.4c-0.2,0-0.4-0.2-0.4-0.4c0-0.2,0.2-0.4,0.4-0.4
		C95.1,23.9,95.3,24.1,95.3,24.3L95.3,24.3z"/>
	<path fill="#E9E8F3" d="M107.6,17.4c0-0.5,0.4-0.9,0.9-0.9c0.5,0,0.9,0.4,0.9,0.9c0,0.5-0.4,0.9-0.9,0.9
		C108,18.2,107.6,17.9,107.6,17.4L107.6,17.4z"/>
	<path fill="#E9E8F3" d="M104.2,17.6c0-0.5,0.4-0.9,0.9-0.9c0.5,0,0.9,0.4,0.9,0.9c0,0.5-0.4,0.9-0.9,0.9
		C104.6,18.5,104.2,18.1,104.2,17.6L104.2,17.6z"/>
	<path fill="#E9E8F3" d="M100.8,17.5c0-0.5,0.4-0.9,0.9-0.9c0.5,0,0.9,0.4,0.9,0.9c0,0.5-0.4,0.9-0.9,0.9
		C101.2,18.5,100.8,18,100.8,17.5L100.8,17.5z"/>
	<path fill="#E9E8F3" d="M97.5,17.5c0-0.5,0.4-0.9,0.9-0.9s0.9,0.4,0.9,0.9c0,0.5-0.4,0.9-0.9,0.9S97.5,18,97.5,17.5L97.5,17.5z"/>
	<path fill="#E9E8F3" d="M94.2,17.6c0-0.4,0.3-0.7,0.7-0.7c0.4,0,0.7,0.3,0.7,0.7c0,0.4-0.3,0.7-0.7,0.7
		C94.5,18.3,94.2,18,94.2,17.6L94.2,17.6z"/>
	<path fill="#E9E8F3" d="M105.6,15.9c0-0.6,0.5-1.1,1.1-1.1c0.6,0,1.1,0.5,1.1,1.1c0,0.6-0.5,1.1-1.1,1.1
		C106.1,17,105.6,16.5,105.6,15.9L105.6,15.9z"/>
	<path fill="#E9E8F3" d="M103.9,14.2c0-0.7,0.5-1.2,1.2-1.2c0.7,0,1.2,0.5,1.2,1.2c0,0.7-0.5,1.2-1.2,1.2
		C104.4,15.3,103.9,14.8,103.9,14.2L103.9,14.2z"/>
	<path fill="#E9E8F3" d="M102.2,12.4c0-0.7,0.5-1.2,1.2-1.2c0.7,0,1.2,0.5,1.2,1.2c0,0.7-0.5,1.2-1.2,1.2
		C102.7,13.6,102.2,13.1,102.2,12.4L102.2,12.4z"/>
	<path fill="#E9E8F3" d="M100.5,10.8c0-0.7,0.5-1.2,1.2-1.2c0.7,0,1.2,0.5,1.2,1.2c0,0.7-0.5,1.2-1.2,1.2
		C101,11.9,100.5,11.4,100.5,10.8L100.5,10.8z"/>
	<path fill="#E9E8F3" d="M98.8,9c0-0.7,0.5-1.2,1.2-1.2c0.7,0,1.2,0.5,1.2,1.2c0,0.7-0.5,1.2-1.2,1.2C99.4,10.2,98.8,9.6,98.8,9
		L98.8,9z"/>
	<path fill="#E9E8F3" d="M97.1,10.8c0-0.7,0.5-1.2,1.2-1.2c0.7,0,1.2,0.5,1.2,1.2c0,0.7-0.5,1.2-1.2,1.2
		C97.6,11.9,97.1,11.4,97.1,10.8L97.1,10.8z"/>
	<path fill="#E9E8F3" d="M95.4,12.4c0-0.7,0.5-1.2,1.2-1.2c0.7,0,1.2,0.5,1.2,1.2c0,0.7-0.5,1.2-1.2,1.2
		C95.9,13.6,95.4,13,95.4,12.4L95.4,12.4z"/>
	<path fill="#E9E8F3" d="M93.7,14.2c0-0.7,0.5-1.2,1.2-1.2c0.7,0,1.2,0.5,1.2,1.2c0,0.7-0.5,1.2-1.2,1.2
		C94.2,15.3,93.7,14.8,93.7,14.2L93.7,14.2z"/>
	<path fill="#E9E8F3" d="M92.1,15.9c0-0.6,0.5-1,1-1c0.6,0,1,0.5,1,1c0,0.6-0.5,1-1,1C92.6,17,92.1,16.5,92.1,15.9L92.1,15.9z"/>
	<path fill="#E9E8F3" d="M95.5,15.8c0-0.6,0.5-1,1-1c0.6,0,1,0.5,1,1c0,0.6-0.5,1-1,1C95.9,16.8,95.5,16.4,95.5,15.8L95.5,15.8z"/>
	<path fill="#E9E8F3" d="M98.9,15.8c0-0.6,0.5-1,1-1c0.6,0,1,0.5,1,1c0,0.6-0.5,1-1,1C99.4,16.9,98.9,16.4,98.9,15.8L98.9,15.8z"/>
	<path fill="#E9E8F3" d="M102.2,15.8c0-0.6,0.5-1.1,1.1-1.1c0.6,0,1.1,0.5,1.1,1.1c0,0.6-0.5,1.1-1.1,1.1
		C102.7,17,102.2,16.5,102.2,15.8L102.2,15.8z"/>
	<path fill="#E9E8F3" d="M100.5,14.2c0-0.6,0.5-1.1,1.1-1.1c0.6,0,1.1,0.5,1.1,1.1c0,0.6-0.5,1.1-1.1,1.1
		C101.1,15.3,100.5,14.8,100.5,14.2L100.5,14.2z"/>
	<path fill="#E9E8F3" d="M98.8,12.4c0-0.6,0.5-1.1,1.1-1.1s1.1,0.5,1.1,1.1c0,0.6-0.5,1.1-1.1,1.1S98.8,13.1,98.8,12.4L98.8,12.4z"
		/>
	<path fill="#E9E8F3" d="M97.2,14.2c0-0.6,0.5-1.1,1.1-1.1c0.6,0,1.1,0.5,1.1,1.1c0,0.6-0.5,1.1-1.1,1.1
		C97.7,15.3,97.2,14.8,97.2,14.2L97.2,14.2z"/>
	<path fill="#E9E8F3" d="M90.4,14.1c0-0.6,0.5-1.1,1.1-1.1c0.6,0,1.1,0.5,1.1,1.1c0,0.6-0.5,1.1-1.1,1.1
		C90.9,15.2,90.4,14.7,90.4,14.1L90.4,14.1z"/>
	<path fill="#E9E8F3" d="M92,12.5c0-0.6,0.5-1.1,1.1-1.1c0.6,0,1.1,0.5,1.1,1.1c0,0.6-0.5,1.1-1.1,1.1C92.5,13.6,92,13.1,92,12.5
		L92,12.5z"/>
	<path fill="#E9E8F3" d="M93.7,10.8c0-0.6,0.5-1.1,1.1-1.1c0.6,0,1.1,0.5,1.1,1.1s-0.5,1.1-1.1,1.1C94.2,11.9,93.7,11.4,93.7,10.8
		L93.7,10.8z"/>
	<path fill="#E9E8F3" d="M95.4,9.1c0-0.6,0.5-1.1,1.1-1.1c0.6,0,1.1,0.5,1.1,1.1c0,0.6-0.5,1.1-1.1,1.1C95.9,10.2,95.4,9.7,95.4,9.1
		L95.4,9.1z"/>
	<path fill="#E9E8F3" d="M92.1,9c0-0.6,0.5-1.1,1.1-1.1c0.6,0,1.1,0.5,1.1,1.1c0,0.6-0.5,1.1-1.1,1.1C92.6,10.2,92.1,9.7,92.1,9
		L92.1,9z"/>
	<path fill="#E9E8F3" d="M90.4,10.7c0-0.6,0.5-1.1,1.1-1.1c0.6,0,1.1,0.5,1.1,1.1c0,0.6-0.5,1.1-1.1,1.1
		C90.9,11.8,90.4,11.3,90.4,10.7L90.4,10.7z"/>
	<path fill="#E9E8F3" d="M88.7,12.5c0-0.6,0.5-1.1,1.1-1.1c0.6,0,1.1,0.5,1.1,1.1c0,0.6-0.5,1.1-1.1,1.1
		C89.2,13.6,88.7,13.1,88.7,12.5L88.7,12.5z"/>
	<path fill="#E9E8F3" d="M87,14.1c0-0.6,0.5-1.1,1.1-1.1c0.6,0,1.1,0.5,1.1,1.1c0,0.6-0.5,1.1-1.1,1.1C87.5,15.2,87,14.7,87,14.1
		L87,14.1z"/>
	<path fill="#E9E8F3" d="M85.3,12.5c0-0.6,0.5-1.1,1.1-1.1c0.6,0,1.1,0.5,1.1,1.1c0,0.6-0.5,1.1-1.1,1.1
		C85.8,13.6,85.3,13.1,85.3,12.5L85.3,12.5z"/>
	<path fill="#E9E8F3" d="M87.1,10.7c0-0.6,0.5-1,1-1c0.6,0,1,0.5,1,1c0,0.6-0.5,1-1,1C87.5,11.7,87.1,11.3,87.1,10.7L87.1,10.7z"/>
	<path fill="#E9E8F3" d="M83.7,10.8c0-0.6,0.5-1,1-1c0.6,0,1,0.5,1,1c0,0.6-0.5,1-1,1C84.1,11.8,83.7,11.3,83.7,10.8L83.7,10.8z"/>
	<path fill="#E9E8F3" d="M82,12.5c0-0.6,0.5-1,1-1c0.6,0,1,0.5,1,1c0,0.6-0.5,1-1,1C82.4,13.5,82,13.1,82,12.5L82,12.5z"/>
	<path fill="#E9E8F3" d="M83.6,14.2c0-0.6,0.5-1,1-1c0.6,0,1,0.5,1,1c0,0.6-0.5,1-1,1C84.1,15.2,83.6,14.7,83.6,14.2L83.6,14.2z"/>
	<path fill="#E9E8F3" d="M85.5,15.8c0-0.5,0.4-0.9,0.9-0.9c0.5,0,0.9,0.4,0.9,0.9c0,0.5-0.4,0.9-0.9,0.9
		C85.9,16.7,85.5,16.3,85.5,15.8L85.5,15.8z"/>
	<path fill="#E9E8F3" d="M88.9,15.8c0-0.5,0.4-0.9,0.9-0.9c0.5,0,0.9,0.4,0.9,0.9c0,0.5-0.4,0.9-0.9,0.9
		C89.3,16.7,88.9,16.3,88.9,15.8L88.9,15.8z"/>
	<path fill="#E9E8F3" d="M82.2,15.8c0-0.4,0.4-0.8,0.8-0.8c0.4,0,0.8,0.4,0.8,0.8s-0.4,0.8-0.8,0.8C82.6,16.6,82.2,16.2,82.2,15.8
		L82.2,15.8z"/>
	<path fill="#E9E8F3" d="M80.4,14.2c0-0.4,0.4-0.8,0.8-0.8c0.4,0,0.8,0.4,0.8,0.8c0,0.5-0.4,0.8-0.8,0.8
		C80.8,15,80.4,14.6,80.4,14.2L80.4,14.2z"/>
	<path fill="#E9E8F3" d="M78.7,12.4c0-0.5,0.4-0.8,0.8-0.8c0.4,0,0.8,0.4,0.8,0.8c0,0.4-0.4,0.8-0.8,0.8
		C79.1,13.2,78.7,12.8,78.7,12.4L78.7,12.4z"/>
	<path fill="#E9E8F3" d="M80.4,10.8c0-0.5,0.4-0.8,0.8-0.8c0.4,0,0.8,0.4,0.8,0.8c0,0.4-0.4,0.8-0.8,0.8
		C80.8,11.6,80.4,11.2,80.4,10.8L80.4,10.8z"/>
	<path fill="#E9E8F3" d="M82.3,9.1c0-0.4,0.3-0.7,0.7-0.7c0.4,0,0.7,0.3,0.7,0.7c0,0.4-0.3,0.7-0.7,0.7C82.6,9.7,82.3,9.4,82.3,9.1
		L82.3,9.1z"/>
	<path fill="#E9E8F3" d="M84.2,7.4c0-0.3,0.3-0.6,0.6-0.6c0.3,0,0.6,0.3,0.6,0.6c0,0.3-0.3,0.6-0.6,0.6C84.4,7.9,84.2,7.7,84.2,7.4
		L84.2,7.4z"/>
	<path fill="#E9E8F3" d="M87.5,7.3c0-0.3,0.3-0.6,0.6-0.6c0.3,0,0.6,0.3,0.6,0.6c0,0.3-0.3,0.6-0.6,0.6C87.7,7.9,87.5,7.7,87.5,7.3
		L87.5,7.3z"/>
	<path fill="#E9E8F3" d="M85.6,9.1c0-0.5,0.4-0.8,0.8-0.8c0.5,0,0.8,0.4,0.8,0.8c0,0.5-0.4,0.8-0.8,0.8C85.9,9.9,85.6,9.5,85.6,9.1
		L85.6,9.1z"/>
	<path fill="#E9E8F3" d="M88.9,9c0-0.5,0.4-0.8,0.8-0.8c0.5,0,0.8,0.4,0.8,0.8c0,0.5-0.4,0.8-0.8,0.8C89.3,9.9,88.9,9.5,88.9,9
		L88.9,9z"/>
	<path fill="#E9E8F3" d="M90.6,7.3c0-0.5,0.4-0.8,0.8-0.8c0.5,0,0.8,0.4,0.8,0.8c0,0.5-0.4,0.8-0.8,0.8C91,8.1,90.6,7.8,90.6,7.3
		L90.6,7.3z"/>
	<path fill="#E9E8F3" d="M77.1,14.1c0-0.5,0.4-0.8,0.8-0.8c0.4,0,0.8,0.4,0.8,0.8c0,0.4-0.4,0.8-0.8,0.8
		C77.5,14.9,77.1,14.6,77.1,14.1L77.1,14.1z"/>
	<path fill="#E9E8F3" d="M75.4,15.8c0-0.4,0.3-0.7,0.7-0.7c0.4,0,0.7,0.3,0.7,0.7c0,0.4-0.3,0.7-0.7,0.7
		C75.7,16.5,75.4,16.2,75.4,15.8L75.4,15.8z"/>
	<path fill="#E9E8F3" d="M78.9,15.9c0-0.4,0.3-0.6,0.6-0.6c0.4,0,0.6,0.3,0.6,0.6c0,0.4-0.3,0.6-0.6,0.6
		C79.2,16.5,78.9,16.3,78.9,15.9L78.9,15.9z"/>
	<path fill="#E9E8F3" d="M73.9,17.6c0-0.3,0.3-0.6,0.6-0.6c0.3,0,0.6,0.3,0.6,0.6c0,0.3-0.3,0.6-0.6,0.6
		C74.1,18.2,73.9,17.9,73.9,17.6L73.9,17.6z"/>
	<path fill="#E9E8F3" d="M72.2,19.2c0-0.3,0.3-0.6,0.6-0.6c0.3,0,0.6,0.3,0.6,0.6c0,0.3-0.3,0.6-0.6,0.6
		C72.4,19.8,72.2,19.6,72.2,19.2L72.2,19.2z"/>
	<path fill="#E9E8F3" d="M70.5,21c0-0.3,0.2-0.5,0.5-0.5c0.3,0,0.5,0.2,0.5,0.5c0,0.3-0.2,0.5-0.5,0.5C70.7,21.5,70.5,21.3,70.5,21
		L70.5,21z"/>
	<path fill="#E9E8F3" d="M68.8,22.6c0-0.3,0.2-0.5,0.5-0.5c0.3,0,0.5,0.2,0.5,0.5c0,0.3-0.2,0.5-0.5,0.5
		C69,23.2,68.8,22.9,68.8,22.6L68.8,22.6z"/>
	<path fill="#E9E8F3" d="M67.2,24.4c0-0.3,0.2-0.5,0.5-0.5c0.3,0,0.5,0.2,0.5,0.5c0,0.3-0.2,0.5-0.5,0.5
		C67.4,24.9,67.2,24.6,67.2,24.4L67.2,24.4z"/>
	<path fill="#E9E8F3" d="M63.6,24.4c0-0.4,0.3-0.7,0.7-0.7s0.7,0.3,0.7,0.7c0,0.4-0.3,0.7-0.7,0.7S63.6,24.7,63.6,24.4L63.6,24.4z"
		/>
	<path fill="#E9E8F3" d="M65.2,22.6c0-0.4,0.4-0.8,0.8-0.8c0.4,0,0.8,0.4,0.8,0.8c0,0.4-0.4,0.8-0.8,0.8
		C65.5,23.4,65.2,23,65.2,22.6L65.2,22.6z"/>
	<path fill="#E9E8F3" d="M66.8,21c0-0.4,0.4-0.8,0.8-0.8c0.4,0,0.8,0.4,0.8,0.8c0,0.4-0.4,0.8-0.8,0.8C67.2,21.8,66.8,21.4,66.8,21
		L66.8,21z"/>
	<path fill="#E9E8F3" d="M68.6,19.2c0-0.4,0.4-0.8,0.8-0.8c0.4,0,0.8,0.4,0.8,0.8c0,0.4-0.4,0.8-0.8,0.8
		C68.9,20,68.6,19.7,68.6,19.2L68.6,19.2z"/>
	<path fill="#E9E8F3" d="M70.3,17.5c0-0.4,0.4-0.8,0.8-0.8c0.4,0,0.8,0.4,0.8,0.8c0,0.4-0.4,0.8-0.8,0.8
		C70.6,18.3,70.3,18,70.3,17.5L70.3,17.5z"/>
	<path fill="#E9E8F3" d="M72,15.9c0-0.4,0.4-0.8,0.8-0.8c0.4,0,0.8,0.4,0.8,0.8c0,0.4-0.4,0.8-0.8,0.8C72.4,16.7,72,16.3,72,15.9
		L72,15.9z"/>
	<path fill="#E9E8F3" d="M73.7,14.1c0-0.4,0.4-0.8,0.8-0.8c0.4,0,0.8,0.4,0.8,0.8c0,0.4-0.4,0.8-0.8,0.8
		C74,14.9,73.7,14.6,73.7,14.1L73.7,14.1z"/>
	<path fill="#E9E8F3" d="M75.4,12.5c0-0.4,0.3-0.8,0.8-0.8c0.4,0,0.8,0.3,0.8,0.8c0,0.4-0.3,0.8-0.8,0.8
		C75.8,13.2,75.4,12.9,75.4,12.5L75.4,12.5z"/>
	<path fill="#E9E8F3" d="M77.2,10.8c0-0.4,0.3-0.7,0.7-0.7c0.4,0,0.7,0.3,0.7,0.7c0,0.4-0.3,0.7-0.7,0.7
		C77.5,11.5,77.2,11.2,77.2,10.8L77.2,10.8z"/>
	<path fill="#E9E8F3" d="M72.2,12.4c0-0.3,0.2-0.5,0.5-0.5c0.3,0,0.5,0.2,0.5,0.5c0,0.3-0.2,0.5-0.5,0.5
		C72.5,13,72.2,12.7,72.2,12.4L72.2,12.4z"/>
	<path fill="#E9E8F3" d="M70.5,14.1c0-0.3,0.2-0.5,0.5-0.5c0.3,0,0.5,0.2,0.5,0.5c0,0.3-0.2,0.5-0.5,0.5
		C70.7,14.6,70.5,14.4,70.5,14.1L70.5,14.1z"/>
	<path fill="#E9E8F3" d="M68.7,15.7c0-0.4,0.3-0.7,0.7-0.7c0.4,0,0.7,0.3,0.7,0.7c0,0.4-0.3,0.7-0.7,0.7
		C69,16.4,68.7,16.1,68.7,15.7L68.7,15.7z"/>
	<path fill="#E9E8F3" d="M66.9,17.5c0-0.4,0.3-0.8,0.8-0.8c0.4,0,0.8,0.3,0.8,0.8c0,0.4-0.3,0.8-0.8,0.8
		C67.2,18.3,66.9,18,66.9,17.5L66.9,17.5z"/>
	<path fill="#E9E8F3" d="M65,19.3c0-0.5,0.4-0.9,0.9-0.9c0.5,0,0.9,0.4,0.9,0.9c0,0.5-0.4,0.9-0.9,0.9C65.5,20.2,65,19.8,65,19.3
		L65,19.3z"/>
	<path fill="#E9E8F3" d="M63.3,20.9c0-0.5,0.4-0.9,0.9-0.9c0.5,0,0.9,0.4,0.9,0.9c0,0.5-0.4,0.9-0.9,0.9
		C63.7,21.9,63.3,21.5,63.3,20.9L63.3,20.9z"/>
	<path fill="#E9E8F3" d="M61.7,22.6c0-0.5,0.4-0.9,0.9-0.9c0.5,0,0.9,0.4,0.9,0.9c0,0.5-0.4,0.9-0.9,0.9
		C62.1,23.6,61.7,23.2,61.7,22.6L61.7,22.6z"/>
	<path fill="#E9E8F3" d="M60,24.3c0-0.5,0.4-0.8,0.8-0.8c0.5,0,0.8,0.4,0.8,0.8c0,0.5-0.4,0.8-0.8,0.8C60.4,25.1,60,24.8,60,24.3
		L60,24.3z"/>
	<path fill="#E9E8F3" d="M58.4,26.1c0-0.4,0.3-0.7,0.7-0.7c0.4,0,0.7,0.3,0.7,0.7c0,0.4-0.3,0.7-0.7,0.7
		C58.7,26.8,58.4,26.4,58.4,26.1L58.4,26.1z"/>
	<path fill="#E9E8F3" d="M56.8,27.7c0-0.3,0.3-0.6,0.6-0.6c0.3,0,0.6,0.3,0.6,0.6c0,0.3-0.3,0.6-0.6,0.6
		C57.1,28.2,56.8,28,56.8,27.7L56.8,27.7z"/>
	<path fill="#E9E8F3" d="M55.1,26c0-0.3,0.2-0.6,0.6-0.6c0.3,0,0.6,0.3,0.6,0.6c0,0.3-0.3,0.6-0.6,0.6C55.4,26.5,55.1,26.3,55.1,26
		L55.1,26z"/>
	<path fill="#E9E8F3" d="M56.9,24.4c0-0.3,0.3-0.6,0.6-0.6c0.3,0,0.6,0.3,0.6,0.6c0,0.3-0.3,0.6-0.6,0.6
		C57.2,24.9,56.9,24.7,56.9,24.4L56.9,24.4z"/>
	<path fill="#E9E8F3" d="M58.3,22.6c0-0.4,0.3-0.8,0.8-0.8c0.4,0,0.8,0.3,0.8,0.8c0,0.4-0.3,0.8-0.8,0.8
		C58.7,23.4,58.3,23.1,58.3,22.6L58.3,22.6z"/>
	<path fill="#E9E8F3" d="M60,20.9c0-0.5,0.4-0.8,0.8-0.8c0.5,0,0.9,0.4,0.9,0.8c0,0.5-0.4,0.8-0.9,0.8C60.4,21.7,60,21.3,60,20.9
		L60,20.9z"/>
	<path fill="#E9E8F3" d="M61.8,19.2c0-0.4,0.3-0.8,0.8-0.8c0.4,0,0.8,0.3,0.8,0.8c0,0.4-0.3,0.8-0.8,0.8
		C62.1,20,61.8,19.7,61.8,19.2L61.8,19.2z"/>
	<path fill="#E9E8F3" d="M63.6,17.5c0-0.4,0.3-0.7,0.7-0.7c0.4,0,0.7,0.3,0.7,0.7c0,0.4-0.3,0.7-0.7,0.7
		C63.9,18.2,63.6,17.9,63.6,17.5L63.6,17.5z"/>
	<path fill="#E9E8F3" d="M65.5,15.9c0-0.3,0.2-0.5,0.5-0.5c0.3,0,0.5,0.2,0.5,0.5c0,0.3-0.2,0.5-0.5,0.5
		C65.7,16.5,65.5,16.2,65.5,15.9L65.5,15.9z"/>
	<path fill="#E9E8F3" d="M67.3,14.2c0-0.2,0.2-0.4,0.4-0.4c0.2,0,0.4,0.2,0.4,0.4c0,0.2-0.2,0.4-0.4,0.4
		C67.5,14.6,67.3,14.4,67.3,14.2L67.3,14.2z"/>
	<path fill="#E9E8F3" d="M93.8,7.3c0-0.6,0.5-1.1,1.1-1.1c0.6,0,1.1,0.5,1.1,1.1c0,0.6-0.5,1.1-1.1,1.1C94.3,8.3,93.8,7.9,93.8,7.3
		L93.8,7.3z"/>
	<path fill="#E9E8F3" d="M97,7.3c0-0.6,0.5-1.1,1.1-1.1c0.6,0,1.1,0.5,1.1,1.1c0,0.6-0.5,1.1-1.1,1.1C97.5,8.3,97,7.9,97,7.3L97,7.3
		z"/>
	<path fill="#E9E8F3" d="M102.3,9c0-0.6,0.5-1.1,1.1-1.1c0.6,0,1.1,0.5,1.1,1.1c0,0.6-0.5,1.1-1.1,1.1C102.7,10,102.3,9.6,102.3,9
		L102.3,9z"/>
	<path fill="#E9E8F3" d="M104,10.6c0-0.6,0.5-1.1,1.1-1.1c0.6,0,1.1,0.5,1.1,1.1c0,0.6-0.5,1.1-1.1,1.1
		C104.5,11.7,104,11.2,104,10.6L104,10.6z"/>
	<path fill="#E9E8F3" d="M105.7,12.3c0-0.6,0.5-1.1,1.1-1.1c0.6,0,1.1,0.5,1.1,1.1c0,0.6-0.5,1.1-1.1,1.1
		C106.1,13.3,105.7,12.8,105.7,12.3L105.7,12.3z"/>
	<path fill="#E9E8F3" d="M107.6,14.1c0-0.6,0.5-1.1,1.1-1.1c0.6,0,1.1,0.5,1.1,1.1c0,0.6-0.5,1.1-1.1,1.1
		C108.1,15.2,107.6,14.7,107.6,14.1L107.6,14.1z"/>
	<path fill="#E9E8F3" d="M109.4,15.9c0-0.6,0.5-1.1,1.1-1.1c0.6,0,1.1,0.5,1.1,1.1c0,0.6-0.5,1.1-1.1,1.1
		C109.8,17,109.4,16.5,109.4,15.9L109.4,15.9z"/>
	<path fill="#E9E8F3" d="M79.1,9c0-0.2,0.2-0.4,0.4-0.4C79.8,8.6,80,8.8,80,9c0,0.2-0.2,0.4-0.4,0.4C79.3,9.5,79.1,9.3,79.1,9
		L79.1,9z"/>
	<path fill="#E9E8F3" d="M80.8,7.4C80.8,7.2,81,7,81.2,7c0.2,0,0.4,0.2,0.4,0.4c0,0.2-0.2,0.4-0.4,0.4C81,7.7,80.8,7.6,80.8,7.4
		L80.8,7.4z"/>
	<path fill="#E9E8F3" d="M75.8,9c0-0.2,0.2-0.4,0.4-0.4c0.2,0,0.4,0.2,0.4,0.4c0,0.2-0.2,0.4-0.4,0.4C76,9.4,75.8,9.2,75.8,9L75.8,9
		z"/>
	<path fill="#E9E8F3" d="M74.1,10.8c0-0.2,0.2-0.4,0.4-0.4c0.2,0,0.4,0.2,0.4,0.4c0,0.2-0.2,0.4-0.4,0.4
		C74.3,11.1,74.1,11,74.1,10.8L74.1,10.8z"/>
	<path fill="#E9E8F3" d="M36.5,31.2c0-0.3,0.2-0.5,0.5-0.5c0.3,0,0.5,0.2,0.5,0.5c0,0.3-0.2,0.5-0.5,0.5
		C36.7,31.6,36.5,31.4,36.5,31.2L36.5,31.2z"/>
	<path fill="#E9E8F3" d="M34.8,29.4c0-0.3,0.2-0.5,0.5-0.5c0.3,0,0.5,0.2,0.5,0.5c0,0.3-0.2,0.5-0.5,0.5
		C35,29.9,34.8,29.7,34.8,29.4L34.8,29.4z"/>
	<path fill="#E9E8F3" d="M33.1,27.8c0-0.3,0.2-0.5,0.5-0.5c0.3,0,0.5,0.2,0.5,0.5c0,0.3-0.2,0.5-0.5,0.5
		C33.3,28.3,33.1,28,33.1,27.8L33.1,27.8z"/>
	<path fill="#E9E8F3" d="M32.9,31.1c0-0.4,0.3-0.7,0.7-0.7c0.4,0,0.7,0.3,0.7,0.7c0,0.4-0.3,0.7-0.7,0.7
		C33.2,31.8,32.9,31.5,32.9,31.1L32.9,31.1z"/>
	<path fill="#E9E8F3" d="M34.8,32.8c0-0.3,0.2-0.5,0.5-0.5c0.3,0,0.5,0.2,0.5,0.5c0,0.3-0.2,0.5-0.5,0.5C35,33.2,34.8,33,34.8,32.8
		L34.8,32.8z"/>
	<path fill="#E9E8F3" d="M38.3,32.8c0-0.2,0.1-0.3,0.3-0.3c0.2,0,0.3,0.1,0.3,0.3c0,0.2-0.1,0.3-0.3,0.3
		C38.5,33.1,38.3,33,38.3,32.8L38.3,32.8z"/>
	<path fill="#E9E8F3" d="M31,29.5c0-0.5,0.4-0.8,0.8-0.8c0.5,0,0.8,0.4,0.8,0.8c0,0.5-0.4,0.8-0.8,0.8C31.4,30.3,31,29.9,31,29.5
		L31,29.5z"/>
	<path fill="#E9E8F3" d="M29.5,27.8c0-0.5,0.4-0.8,0.8-0.8c0.5,0,0.8,0.4,0.8,0.8c0,0.5-0.4,0.8-0.8,0.8
		C29.8,28.6,29.5,28.2,29.5,27.8L29.5,27.8z"/>
	<path fill="#E9E8F3" d="M26,27.7c0-0.5,0.4-0.8,0.8-0.8c0.5,0,0.8,0.4,0.8,0.8c0,0.5-0.4,0.8-0.8,0.8C26.3,28.6,26,28.2,26,27.7
		L26,27.7z"/>
	<path fill="#E9E8F3" d="M27.5,29.5c0-0.5,0.4-0.9,0.9-0.9c0.5,0,0.9,0.4,0.9,0.9c0,0.5-0.4,0.9-0.9,0.9
		C27.9,30.4,27.5,30,27.5,29.5L27.5,29.5z"/>
	<path fill="#E9E8F3" d="M29.3,31c0-0.5,0.4-0.9,0.9-0.9c0.5,0,0.9,0.4,0.9,0.9c0,0.5-0.4,0.9-0.9,0.9C29.7,32,29.3,31.5,29.3,31
		L29.3,31z"/>
	<path fill="#E9E8F3" d="M24.1,29.4c0-0.6,0.5-1,1-1c0.6,0,1,0.5,1,1c0,0.6-0.5,1-1,1C24.6,30.5,24.1,30,24.1,29.4L24.1,29.4z"/>
	<path fill="#E9E8F3" d="M25.9,31.1c0-0.5,0.4-0.9,0.9-0.9c0.5,0,0.9,0.4,0.9,0.9c0,0.5-0.4,0.9-0.9,0.9
		C26.3,32,25.9,31.6,25.9,31.1L25.9,31.1z"/>
	<path fill="#E9E8F3" d="M27.7,32.8c0-0.4,0.3-0.6,0.6-0.6c0.4,0,0.6,0.3,0.6,0.6c0,0.4-0.3,0.6-0.6,0.6
		C28,33.4,27.7,33.1,27.7,32.8L27.7,32.8z"/>
	<path fill="#E9E8F3" d="M17.5,29.5c0-0.5,0.4-0.9,0.9-0.9c0.5,0,0.9,0.4,0.9,0.9c0,0.5-0.4,0.9-0.9,0.9
		C17.9,30.4,17.5,30,17.5,29.5L17.5,29.5z"/>
	<path fill="#E9E8F3" d="M15.7,27.7c0-0.5,0.4-0.9,0.9-0.9c0.5,0,0.9,0.4,0.9,0.9c0,0.5-0.4,0.9-0.9,0.9
		C16.1,28.7,15.7,28.2,15.7,27.7L15.7,27.7z"/>
	<path fill="#E9E8F3" d="M14,29.4c0-0.4,0.4-0.8,0.8-0.8c0.4,0,0.8,0.4,0.8,0.8c0,0.4-0.4,0.8-0.8,0.8C14.4,30.2,14,29.8,14,29.4
		L14,29.4z"/>
	<path fill="#E9E8F3" d="M15.7,31.1c0-0.4,0.3-0.7,0.7-0.7c0.4,0,0.7,0.3,0.7,0.7c0,0.4-0.3,0.7-0.7,0.7
		C16,31.9,15.7,31.5,15.7,31.1L15.7,31.1z"/>
	<path fill="#E9E8F3" d="M12.5,27.8c0-0.4,0.3-0.7,0.7-0.7c0.4,0,0.7,0.3,0.7,0.7c0,0.4-0.3,0.7-0.7,0.7
		C12.8,28.4,12.5,28.1,12.5,27.8L12.5,27.8z"/>
	<path fill="#E9E8F3" d="M10.8,29.4c0-0.4,0.3-0.7,0.7-0.7c0.4,0,0.7,0.3,0.7,0.7c0,0.4-0.3,0.7-0.7,0.7
		C11.1,30.1,10.8,29.8,10.8,29.4L10.8,29.4z"/>
	<path fill="#E9E8F3" d="M12.5,31.1c0-0.4,0.3-0.7,0.7-0.7c0.4,0,0.7,0.3,0.7,0.7c0,0.4-0.3,0.7-0.7,0.7
		C12.8,31.8,12.5,31.5,12.5,31.1L12.5,31.1z"/>
	<path fill="#E9E8F3" d="M14.3,32.8c0-0.3,0.3-0.6,0.6-0.6c0.3,0,0.6,0.3,0.6,0.6c0,0.3-0.3,0.6-0.6,0.6
		C14.6,33.4,14.3,33.1,14.3,32.8L14.3,32.8z"/>
	<path fill="#E9E8F3" d="M9.3,27.8c0-0.3,0.3-0.6,0.6-0.6c0.3,0,0.6,0.3,0.6,0.6c0,0.3-0.3,0.6-0.6,0.6C9.5,28.3,9.3,28.1,9.3,27.8
		L9.3,27.8z"/>
	<path fill="#E9E8F3" d="M7.5,29.5c0-0.3,0.2-0.5,0.5-0.5c0.3,0,0.5,0.2,0.5,0.5c0,0.3-0.2,0.5-0.5,0.5C7.7,30,7.5,29.8,7.5,29.5
		L7.5,29.5z"/>
	<path fill="#E9E8F3" d="M9.4,31.1c0-0.3,0.2-0.5,0.5-0.5c0.3,0,0.5,0.2,0.5,0.5c0,0.3-0.2,0.5-0.5,0.5C9.6,31.6,9.4,31.4,9.4,31.1
		L9.4,31.1z"/>
	<path fill="#E9E8F3" d="M11.1,33c0-0.3,0.2-0.5,0.5-0.5c0.3,0,0.5,0.2,0.5,0.5c0,0.3-0.2,0.5-0.5,0.5C11.3,33.4,11.1,33.2,11.1,33
		L11.1,33z"/>
	<path fill="#E9E8F3" d="M12.8,34.6c0-0.2,0.2-0.4,0.4-0.4c0.2,0,0.4,0.2,0.4,0.4c0,0.2-0.2,0.4-0.4,0.4C13,35,12.8,34.8,12.8,34.6
		L12.8,34.6z"/>
	<path fill="#E9E8F3" d="M22.3,27.8c0-0.6,0.5-1,1-1c0.6,0,1,0.5,1,1c0,0.6-0.5,1-1,1C22.8,28.8,22.3,28.3,22.3,27.8L22.3,27.8z"/>
	<path fill="#E9E8F3" d="M18.9,27.6c0-0.6,0.5-1,1-1c0.6,0,1,0.5,1,1c0,0.6-0.5,1-1,1C19.4,28.7,18.9,28.2,18.9,27.6L18.9,27.6z"/>
	<path fill="#E9E8F3" d="M20.6,29.5c0-0.5,0.4-0.9,0.9-0.9c0.5,0,0.9,0.4,0.9,0.9c0,0.5-0.4,0.9-0.9,0.9C21,30.4,20.6,30,20.6,29.5
		L20.6,29.5z"/>
	<path fill="#E9E8F3" d="M19.2,31.2c0-0.4,0.3-0.7,0.7-0.7c0.4,0,0.7,0.3,0.7,0.7c0,0.4-0.3,0.7-0.7,0.7
		C19.5,31.8,19.2,31.5,19.2,31.2L19.2,31.2z"/>
	<path fill="#E9E8F3" d="M17.8,32.8c0-0.3,0.2-0.5,0.5-0.5c0.3,0,0.5,0.2,0.5,0.5c0,0.3-0.2,0.5-0.5,0.5
		C18.1,33.3,17.8,33.1,17.8,32.8L17.8,32.8z"/>
	<path fill="#E9E8F3" d="M22.6,31.1c0-0.4,0.3-0.7,0.7-0.7c0.4,0,0.7,0.3,0.7,0.7c0,0.4-0.3,0.7-0.7,0.7
		C22.9,31.8,22.6,31.5,22.6,31.1L22.6,31.1z"/>
	<path fill="#E9E8F3" d="M24.6,32.8c0-0.3,0.2-0.5,0.5-0.5c0.3,0,0.5,0.2,0.5,0.5c0,0.3-0.2,0.5-0.5,0.5
		C24.8,33.3,24.6,33.1,24.6,32.8L24.6,32.8z"/>
	<path fill="#E9E8F3" d="M31.4,32.8c0-0.3,0.2-0.5,0.5-0.5c0.3,0,0.5,0.2,0.5,0.5c0,0.3-0.2,0.5-0.5,0.5
		C31.6,33.3,31.4,33.1,31.4,32.8L31.4,32.8z"/>
	<path fill="#E9E8F3" d="M6,27.8c0-0.2,0.1-0.3,0.3-0.3c0.2,0,0.3,0.1,0.3,0.3c0,0.2-0.1,0.3-0.3,0.3C6.1,28.1,6,28,6,27.8L6,27.8z"
		/>
	<path fill="#E9E8F3" d="M14.5,36.1c0-0.2,0.1-0.3,0.3-0.3c0.2,0,0.3,0.1,0.3,0.3c0,0.2-0.1,0.3-0.3,0.3
		C14.7,36.4,14.5,36.3,14.5,36.1L14.5,36.1z"/>
	<path fill="#E9E8F3" d="M9.4,34.5c0-0.2,0.1-0.3,0.3-0.3c0.2,0,0.3,0.1,0.3,0.3c0,0.2-0.1,0.3-0.3,0.3C9.5,34.8,9.4,34.6,9.4,34.5
		L9.4,34.5z"/>
	<path fill="#E9E8F3" d="M7.6,32.8c0-0.2,0.1-0.3,0.3-0.3c0.2,0,0.3,0.1,0.3,0.3c0,0.2-0.1,0.3-0.3,0.3C7.8,33.1,7.6,33,7.6,32.8
		L7.6,32.8z"/>
	<path fill="#E9E8F3" d="M6,31.1c0-0.2,0.1-0.3,0.3-0.3c0.2,0,0.3,0.1,0.3,0.3c0,0.2-0.1,0.3-0.3,0.3C6.2,31.4,6,31.3,6,31.1L6,31.1
		z"/>
	<path fill="#E9E8F3" d="M31.2,26.1c0-0.3,0.2-0.5,0.5-0.5c0.3,0,0.5,0.2,0.5,0.5c0,0.3-0.2,0.5-0.5,0.5
		C31.4,26.6,31.2,26.4,31.2,26.1L31.2,26.1z"/>
	<path fill="#E9E8F3" d="M27.9,26.2c0-0.3,0.2-0.5,0.5-0.5c0.3,0,0.5,0.2,0.5,0.5c0,0.3-0.2,0.5-0.5,0.5
		C28.1,26.7,27.9,26.5,27.9,26.2L27.9,26.2z"/>
	<path fill="#E9E8F3" d="M24.5,26.3c0-0.3,0.2-0.5,0.5-0.5c0.3,0,0.5,0.2,0.5,0.5c0,0.3-0.2,0.5-0.5,0.5
		C24.7,26.8,24.5,26.6,24.5,26.3L24.5,26.3z"/>
	<path fill="#E9E8F3" d="M21.1,26.4c0-0.3,0.2-0.5,0.5-0.5c0.3,0,0.5,0.2,0.5,0.5c0,0.3-0.2,0.5-0.5,0.5
		C21.3,26.9,21.1,26.7,21.1,26.4L21.1,26.4z"/>
	<path fill="#E9E8F3" d="M17.8,26.4c0-0.3,0.2-0.5,0.5-0.5c0.3,0,0.5,0.2,0.5,0.5c0,0.3-0.2,0.5-0.5,0.5
		C18,26.9,17.8,26.7,17.8,26.4L17.8,26.4z"/>
	<path fill="#E9E8F3" d="M104.2,7.5c0-0.3,0.3-0.6,0.6-0.6c0.3,0,0.6,0.3,0.6,0.6c0,0.3-0.3,0.6-0.6,0.6
		C104.5,8.1,104.2,7.8,104.2,7.5L104.2,7.5z"/>
	<path fill="#E9E8F3" d="M100.7,7.1c0-0.6,0.5-1.1,1.1-1.1c0.6,0,1.1,0.5,1.1,1.1c0,0.6-0.5,1.1-1.1,1.1
		C101.2,8.1,100.7,7.7,100.7,7.1L100.7,7.1z"/>
	<path fill="#E9E8F3" d="M106,9c0-0.3,0.3-0.6,0.6-0.6c0.3,0,0.6,0.3,0.6,0.6c0,0.3-0.3,0.6-0.6,0.6C106.2,9.6,106,9.3,106,9L106,9z
		"/>
	<path fill="#E9E8F3" d="M107.6,10.7c0-0.3,0.3-0.6,0.6-0.6c0.3,0,0.6,0.3,0.6,0.6c0,0.3-0.3,0.6-0.6,0.6
		C107.9,11.3,107.6,11,107.6,10.7L107.6,10.7z"/>
	<path fill="#E9E8F3" d="M109.5,12.6c0-0.3,0.3-0.6,0.6-0.6c0.3,0,0.6,0.3,0.6,0.6c0,0.3-0.3,0.6-0.6,0.6
		C109.7,13.1,109.5,12.9,109.5,12.6L109.5,12.6z"/>
	<path fill="#E9E8F3" d="M111.2,14.4c0-0.3,0.3-0.6,0.6-0.6c0.3,0,0.6,0.3,0.6,0.6c0,0.3-0.3,0.6-0.6,0.6
		C111.5,15,111.2,14.8,111.2,14.4L111.2,14.4z"/>
	<path fill="#E9E8F3" d="M112.7,15.8c0-0.3,0.3-0.6,0.6-0.6c0.3,0,0.6,0.3,0.6,0.6c0,0.3-0.3,0.6-0.6,0.6
		C113,16.4,112.7,16.2,112.7,15.8L112.7,15.8z"/>
	<path fill="#E9E8F3" d="M114.3,17.5c0-0.3,0.3-0.6,0.6-0.6c0.3,0,0.6,0.3,0.6,0.6c0,0.3-0.3,0.6-0.6,0.6
		C114.6,18.1,114.3,17.8,114.3,17.5L114.3,17.5z"/>
	<path fill="#E9E8F3" d="M114.4,14.4c0-0.2,0.2-0.4,0.4-0.4s0.4,0.2,0.4,0.4c0,0.2-0.2,0.4-0.4,0.4S114.4,14.6,114.4,14.4
		L114.4,14.4z"/>
	<path fill="#E9E8F3" d="M112.8,12.9c0-0.2,0.2-0.4,0.4-0.4c0.2,0,0.4,0.2,0.4,0.4c0,0.2-0.2,0.4-0.4,0.4
		C113,13.4,112.8,13.2,112.8,12.9L112.8,12.9z"/>
	<path fill="#E9E8F3" d="M111,11.3c0-0.2,0.2-0.4,0.4-0.4c0.2,0,0.4,0.2,0.4,0.4c0,0.2-0.2,0.4-0.4,0.4
		C111.2,11.7,111,11.5,111,11.3L111,11.3z"/>
	<path fill="#E9E8F3" d="M109.2,9.4c0-0.2,0.2-0.4,0.4-0.4c0.2,0,0.4,0.2,0.4,0.4c0,0.2-0.2,0.4-0.4,0.4
		C109.4,9.8,109.2,9.6,109.2,9.4L109.2,9.4z"/>
	<path fill="#E9E8F3" d="M107.5,7.7c0-0.2,0.2-0.4,0.4-0.4c0.2,0,0.4,0.2,0.4,0.4c0,0.2-0.2,0.4-0.4,0.4
		C107.7,8.1,107.5,7.9,107.5,7.7L107.5,7.7z"/>
</g>
</svg>
