<?xml version="1.0" encoding="utf-8"?>
<!-- Generator: Adobe Illustrator 18.1.1, SVG Export Plug-In . SVG Version: 6.00 Build 0)  -->
<svg version="1.1" id="Layer_1" xmlns="http://www.w3.org/2000/svg" xmlns:xlink="http://www.w3.org/1999/xlink" x="0px" y="0px"
	 viewBox="0 0 66.2 64.2" enable-background="new 0 0 66.2 64.2" xml:space="preserve">
<path fill="#FFFFFF" d="M65.4,43.6c-0.3-3.1-3.4-24.4-4.3-28.1C60.1,11.2,56.8,2.8,53,0.3C52.9,0.2,34.6,0,34.5,0l-3.8,8.1l-2.3,9.4
	l0-4.8l-5.2,11c0,0,0,1.2,0.1,2.4c1.3,11,9.7,22.5,9.7,22.5l8.9,15.7l23.6,0C65.7,64.3,66.9,61.5,65.4,43.6z"/>
<linearGradient id="SVGID_1_" gradientUnits="userSpaceOnUse" x1="23.5757" y1="25.7613" x2="36.9799" y2="12.3571">
	<stop  offset="0" style="stop-color:#FFFFFF"/>
	<stop  offset="0.1547" style="stop-color:#B3DEE4"/>
	<stop  offset="0.3183" style="stop-color:#6AC4D0"/>
	<stop  offset="0.4672" style="stop-color:#00B4C2"/>
	<stop  offset="0.5957" style="stop-color:#00A9B9"/>
	<stop  offset="0.699" style="stop-color:#00A3B4"/>
	<stop  offset="0.764" style="stop-color:#00A2B2"/>
</linearGradient>
<path fill="url(#SVGID_1_)" d="M35.1,11.7c1.2,1.4,3.8,3.5,3.1,6.4c-0.7,2.8-3.3,5.7-4.4,5.2c-1.1-0.5-10.9,0.8-10.5,0.2
	c0.7-1,5.3-11.1,5.3-11.1l-0.1,5.5l1.5-6.7l0.7-1.1"/>
<linearGradient id="SVGID_2_" gradientUnits="userSpaceOnUse" x1="11.5417" y1="2.1568" x2="17.4314" y2="2.1568" gradientTransform="matrix(1 0 0 1 9.8135 9.5332)">
	<stop  offset="0" style="stop-color:#FFFFFF"/>
	<stop  offset="0.658" style="stop-color:#30B8C6"/>
	<stop  offset="1" style="stop-color:#00A2B2"/>
</linearGradient>
<path fill="url(#SVGID_2_)" d="M21.4,13.2l0.7,4.1c0,0,5.3-7.9,5.2-11.3L21.4,13.2z"/>
<linearGradient id="SVGID_3_" gradientUnits="userSpaceOnUse" x1="21.3153" y1="18.3058" x2="30.8055" y2="8.8156">
	<stop  offset="0" style="stop-color:#FFFFFF"/>
	<stop  offset="0.5545" style="stop-color:#30B8C6"/>
	<stop  offset="0.8427" style="stop-color:#00A2B2"/>
</linearGradient>
<polygon fill="url(#SVGID_3_)" points="28.2,7.3 22.7,18.7 25.1,18.7 28.5,11.5 "/>
<g>
	<linearGradient id="SVGID_4_" gradientUnits="userSpaceOnUse" x1="32.2392" y1="50.8964" x2="18.3833" y2="50.8964">
		<stop  offset="0" style="stop-color:#FFFFFF"/>
		<stop  offset="0.658" style="stop-color:#30B8C6"/>
		<stop  offset="1" style="stop-color:#00A2B2"/>
	</linearGradient>
	<path fill="url(#SVGID_4_)" d="M19.1,37.6l3.2,23.3l1.6,3.3l5,0c0,0-1.7-2.9-3.4-8.7c-1.8-5.8-5.9-17.4-5.9-17.4L19.1,37.6z"/>
	<linearGradient id="SVGID_5_" gradientUnits="userSpaceOnUse" x1="34.7241" y1="53.5532" x2="22.6433" y2="53.5532">
		<stop  offset="0" style="stop-color:#FFFFFF"/>
		<stop  offset="0.658" style="stop-color:#30B8C6"/>
		<stop  offset="1" style="stop-color:#00A2B2"/>
	</linearGradient>
	<path fill="url(#SVGID_5_)" d="M23.4,42.9c0,0,3,10.4,4.1,14c1.2,3.6,3,7.4,3,7.4h2l-4.1-14.5L23.4,42.9z"/>
	<linearGradient id="SVGID_6_" gradientUnits="userSpaceOnUse" x1="42.1791" y1="58.9374" x2="30.2166" y2="58.9374">
		<stop  offset="0" style="stop-color:#FFFFFF"/>
		<stop  offset="0.658" style="stop-color:#30B8C6"/>
		<stop  offset="1" style="stop-color:#00A2B2"/>
	</linearGradient>
	<polyline fill="url(#SVGID_6_)" points="30.9,53.8 34.1,64.2 38.2,64.2 31.2,53.7 	"/>
	<linearGradient id="SVGID_7_" gradientUnits="userSpaceOnUse" x1="18.7488" y1="54.3933" x2="6.7866" y2="54.3933">
		<stop  offset="0" style="stop-color:#FFFFFF"/>
		<stop  offset="0.658" style="stop-color:#30B8C6"/>
		<stop  offset="1" style="stop-color:#00A2B2"/>
	</linearGradient>
	<polygon fill="url(#SVGID_7_)" points="9.5,44.3 7.5,46.9 12,64.4 16.5,64.5 	"/>
	<linearGradient id="SVGID_8_" gradientUnits="userSpaceOnUse" x1="12.4775" y1="56.7008" x2="4.7749" y2="56.7008">
		<stop  offset="0" style="stop-color:#FFFFFF"/>
		<stop  offset="0.658" style="stop-color:#30B8C6"/>
		<stop  offset="1" style="stop-color:#00A2B2"/>
	</linearGradient>
	<path fill="url(#SVGID_8_)" d="M10.4,64.4c0,0-2.3-9.1-2.6-9.9c-0.2-0.8-1.7-5.6-1.7-5.6l-0.7,1.2c0,0,1.4,7.1,2.4,9.2
		c0.9,2.1,1.7,5.1,1.7,5.1L10.4,64.4"/>
</g>
<path fill="#FFFFFF" d="M23.9,22.4l1.9-3.4c0,0,3.9,0.8,4.4,1.8c0.5,0.9,0,1.7,0,1.7l-6.3,0.3"/>
<linearGradient id="SVGID_9_" gradientUnits="userSpaceOnUse" x1="106.5722" y1="31.3895" x2="106.5722" y2="25.8904" gradientTransform="matrix(1 0 0 1 -80.2544 -8.2344)">
	<stop  offset="0" style="stop-color:#FFFFFF"/>
	<stop  offset="1" style="stop-color:#78B2DC"/>
</linearGradient>
<path fill="url(#SVGID_9_)" d="M26.3,18.4c-0.2,0-0.4,0-0.5,0.1L24.3,21c0.3,0.8,1,1.4,1.9,1.4c1.1,0,2-0.9,2-2
	C28.3,19.3,27.4,18.4,26.3,18.4z"/>
<linearGradient id="SVGID_10_" gradientUnits="userSpaceOnUse" x1="61.4557" y1="19.8796" x2="44.5111" y2="19.8796">
	<stop  offset="0" style="stop-color:#FFFFFF"/>
	<stop  offset="0.658" style="stop-color:#30B8C6"/>
	<stop  offset="1" style="stop-color:#00A2B2"/>
</linearGradient>
<path fill="url(#SVGID_10_)" d="M46.9,24.4c-0.4-1.2-1.5-4.7-1.5-5.2c0-0.5-0.1-0.8,0.1-1.6c0.2-0.8,1.3-2.9,3.4-4.2
	c2.2-1.3,7-1.4,8.6-0.2c1.6,1.2,3.2,3.5,3.2,4.6c0,1.2-0.7,8.5-0.8,8.6c-0.2,0.1-0.5,1.2-2.7,0.8c-2.2-0.4-3.6-1.2-4.6-1.5
	c-1-0.3-2-0.7-3.4-0.7C47.9,25,47.1,25.2,46.9,24.4z"/>
<path fill="#FFFFFF" d="M49.4,24.2c0.5,0.4,0.7,0.5,1.6,0.7c0.8,0.1,1.8,0.4,2.6,0.6c0.8,0.2,3,1.2,4.1,1c1.1-0.2,1.7-0.9,0.8-2.1
	c-0.9-1.2-2.5-2.2-3.4-2.2s-2.7,0.2-3.8,0.6c-1.1,0.4-1.8,0.6-2,0.8"/>
<path fill="none" stroke="#039C9B" stroke-width="0.3504" stroke-miterlimit="3.8637" d="M57.1,23.3"/>
<linearGradient id="SVGID_11_" gradientUnits="userSpaceOnUse" x1="53.6935" y1="46.5117" x2="32.3571" y2="46.5117">
	<stop  offset="0" style="stop-color:#FFFFFF"/>
	<stop  offset="0.2654" style="stop-color:#A5D8E0"/>
	<stop  offset="0.5307" style="stop-color:#4DBDCA"/>
	<stop  offset="0.7488" style="stop-color:#00ADBD"/>
	<stop  offset="0.9113" style="stop-color:#00A4B5"/>
	<stop  offset="1" style="stop-color:#00A2B2"/>
</linearGradient>
<path fill="url(#SVGID_11_)" d="M33.1,48.5c4.2-3.4,7.4-5.2,8.8-5.3c2.3-0.2,1.9,0.2,3.5,0.2c1.6,0,2-0.2,3.1-0.2
	c2.9,0,4.5,6.8,4.5,6.8s-2.4-2.6-5.5-2.2c-3.4,0.5-4.9-0.1-6.6-0.1c-1.7,0-7,2.2-7,2.2L33.1,48.5z"/>
<linearGradient id="SVGID_12_" gradientUnits="userSpaceOnUse" x1="53.7014" y1="56.106" x2="35.551" y2="56.106">
	<stop  offset="0" style="stop-color:#FFFFFF"/>
	<stop  offset="1" style="stop-color:#00A2B2"/>
</linearGradient>
<path fill="url(#SVGID_12_)" d="M36.3,54.4c0.7-0.5,1.8-1.2,2.5-1.2c2.1,0,3.4,0.9,4.9,0.9c1.6,0,3.4-0.3,4.4-0.4
	c2.1-0.4,3.1,1.1,3.4,1.5c0.4,0.4,1.6,5-1.8,3.7c-3.4-1.3-3.4-2.4-6.2-2.4c-2.1,0-5.4,1.3-5.4,1.3L36.3,54.4z"/>
<path fill="#00A2B2" stroke="#039C9B" stroke-width="0.3504" stroke-miterlimit="3.8637" d="M42.8,34c-0.2-0.2-1.8-0.2-2.5,0.2
	s-1.3,1.4-1,1.7c0.3,0.3,0.5,0.9,0.9,0.7c0.5-0.1,1-1.1,1.2-1.3c0.2-0.2,1.2-0.7,1.4-0.8C42.9,34.2,42.8,34,42.8,34z"/>
<path fill="#00A2B2" stroke="#039C9B" stroke-width="0.3504" stroke-miterlimit="3.8637" d="M48.3,34.3c-0.4,0-0.8,0.8-1,1
	c-0.2,0.2-0.3,0.4-0.1,0.5c0.2,0.2,0.8,0.8,1,1c0.2,0.2,0.5,0.3,0.7,0.1c0.2-0.2,0.2-1.2,0.1-1.8C48.8,34.7,48.3,34.3,48.3,34.3z"/>
<linearGradient id="SVGID_13_" gradientUnits="userSpaceOnUse" x1="54.9675" y1="-20.1049" x2="54.9675" y2="-25.6041" gradientTransform="matrix(1 0 0 0.8801 0 43.8677)">
	<stop  offset="0" style="stop-color:#FFFFFF"/>
	<stop  offset="1" style="stop-color:#78B2DC"/>
</linearGradient>
<ellipse fill="url(#SVGID_13_)" cx="55" cy="23.8" rx="2" ry="1.8"/>
<ellipse fill="#78B2DC" cx="55" cy="23.6" rx="1.1" ry="1"/>
<ellipse fill="#FFFFFF" cx="53.9" cy="23.4" rx="0.3" ry="0.3"/>
<path fill="#FFFFFF" d="M54.4,22.6c-0.7,0.6,0.3,0.8,0.7,0.4c0.6-0.6-0.5-0.5-0.8-0.4"/>
<path fill="#00A2B2" d="M48.5,24.3c-0.3,0-0.6-0.2-0.3-0.4c0.3-0.3,0.8-0.3,2-0.7c1.2-0.4,2.9-1,3.7-1.2c0.8-0.2,3,0,3.7,0.3
	c0.7,0.3,2.1,1.2,2.1,4.3l-2-0.1c0,0,0.4-0.8,0.2-1.7c-0.1-0.4-0.3-1.3-1-1.8c-0.8-0.6-2.1-0.7-2.7-0.7c-1,0-4,0.7-4.4,1.2
	c-0.5,0.5,0,1,0,1s-0.5-0.2-0.8-0.3"/>
<path fill="#00A2B2" d="M30.5,9.4c1.8,0,2.1,0.2,2.9,0.5c0.9,0.4,1.6,1,2.2,2.3c0.5,1.3-1,1.4-2,1.2c-1.3-0.3-1.3-0.3-2.3-0.6
	c-0.9-0.3-0.9-1-1.4-1.6"/>
<circle fill="#00A2B2" cx="26.1" cy="20.4" r="1.2"/>
<ellipse fill="#FFFFFF" cx="26.1" cy="19.5" rx="0.4" ry="0.4"/>
<path fill="#00A2B2" d="M30.1,22.5c0,0,0.4-0.8,0-1.2c-0.4-0.4-2-2.2-4.1-2.2c-0.2,0-0.5,0.1-0.5,0c0.2-0.4,0.5-0.9,0.5-0.9
	s1.5-0.1,5.8,4.2L30.1,22.5z"/>
<linearGradient id="SVGID_14_" gradientUnits="userSpaceOnUse" x1="46.8754" y1="24.403" x2="46.8754" y2="24.403">
	<stop  offset="0" style="stop-color:#FFFFFF"/>
	<stop  offset="0.658" style="stop-color:#30B8C6"/>
	<stop  offset="1" style="stop-color:#00A2B2"/>
</linearGradient>
<path fill="url(#SVGID_14_)" d="M46.9,24.4"/>
<polygon fill="#00A2B2" points="28.3,9.1 28.3,10.9 26.7,10.5 27.3,9.2 "/>
<polygon fill="#00A2B2" points="26.5,9.2 26,10.3 23.7,10.3 24.7,9.1 "/>
<path fill="#00A2B2" d="M22.2,17.4"/>
<linearGradient id="SVGID_15_" gradientUnits="userSpaceOnUse" x1="14.3706" y1="27.6884" x2="8.9165" y2="27.6884">
	<stop  offset="0" style="stop-color:#FFFFFF"/>
	<stop  offset="0.658" style="stop-color:#30B8C6"/>
	<stop  offset="1" style="stop-color:#00A2B2"/>
</linearGradient>
<path fill="url(#SVGID_15_)" d="M13.7,31.5l-1.2,1.8c0,0-2.1-7.3-2.5-10.2c-0.1-0.4,1.7-1.1,1.7-1.1"/>
<linearGradient id="SVGID_16_" gradientUnits="userSpaceOnUse" x1="11.6488" y1="19.819" x2="9.1533" y2="19.819">
	<stop  offset="0" style="stop-color:#FFFFFF"/>
	<stop  offset="0.658" style="stop-color:#30B8C6"/>
	<stop  offset="1" style="stop-color:#00A2B2"/>
</linearGradient>
<polygon fill="url(#SVGID_16_)" points="10.5,18.5 10.9,20.3 9.9,21.1 "/>
<linearGradient id="SVGID_17_" gradientUnits="userSpaceOnUse" x1="15.2997" y1="35.084" x2="11.8748" y2="35.084">
	<stop  offset="0" style="stop-color:#FFFFFF"/>
	<stop  offset="0.658" style="stop-color:#30B8C6"/>
	<stop  offset="1" style="stop-color:#00A2B2"/>
</linearGradient>
<polygon fill="url(#SVGID_17_)" points="13.9,33.1 12.6,34.7 13.5,37.1 14.6,35.7 "/>
<linearGradient id="SVGID_18_" gradientUnits="userSpaceOnUse" x1="16.3821" y1="39.9947" x2="12.9402" y2="39.9947">
	<stop  offset="0" style="stop-color:#FFFFFF"/>
	<stop  offset="0.658" style="stop-color:#30B8C6"/>
	<stop  offset="1" style="stop-color:#00A2B2"/>
</linearGradient>
<polygon fill="url(#SVGID_18_)" points="14.6,36.6 15.7,43.4 13.9,38.3 "/>
<linearGradient id="SVGID_19_" gradientUnits="userSpaceOnUse" x1="21.4708" y1="44.4914" x2="14.9515" y2="44.4914">
	<stop  offset="0" style="stop-color:#FFFFFF"/>
	<stop  offset="0.658" style="stop-color:#30B8C6"/>
	<stop  offset="1" style="stop-color:#00A2B2"/>
</linearGradient>
<polyline fill="url(#SVGID_19_)" points="15.5,35.5 16.6,33.2 17.7,35.5 20.8,55.8 17.4,48.8 "/>
<linearGradient id="SVGID_20_" gradientUnits="userSpaceOnUse" x1="17.092" y1="32.4213" x2="13.8691" y2="32.4213">
	<stop  offset="0" style="stop-color:#FFFFFF"/>
	<stop  offset="0.658" style="stop-color:#30B8C6"/>
	<stop  offset="1" style="stop-color:#00A2B2"/>
</linearGradient>
<polygon fill="url(#SVGID_20_)" points="14.6,31.5 15.2,34.6 16.4,32.7 15.3,30.2 "/>
<linearGradient id="SVGID_21_" gradientUnits="userSpaceOnUse" x1="15.7905" y1="25.7352" x2="11.5201" y2="25.7352">
	<stop  offset="0" style="stop-color:#FFFFFF"/>
	<stop  offset="0.658" style="stop-color:#30B8C6"/>
	<stop  offset="1" style="stop-color:#00A2B2"/>
</linearGradient>
<polygon fill="url(#SVGID_21_)" points="12.6,21.4 15.1,29.2 14.6,30.1 12.2,21.7 "/>
<linearGradient id="SVGID_22_" gradientUnits="userSpaceOnUse" x1="13.1874" y1="18.0438" x2="10.3365" y2="18.0438">
	<stop  offset="0" style="stop-color:#FFFFFF"/>
	<stop  offset="0.658" style="stop-color:#30B8C6"/>
	<stop  offset="1" style="stop-color:#00A2B2"/>
</linearGradient>
<polygon fill="url(#SVGID_22_)" points="11.9,19.7 11.1,17.2 11.4,16.4 12.5,19.6 "/>
<linearGradient id="SVGID_23_" gradientUnits="userSpaceOnUse" x1="8.8089" y1="32.4216" x2="3.3552" y2="32.4216">
	<stop  offset="0" style="stop-color:#FFFFFF"/>
	<stop  offset="0.658" style="stop-color:#30B8C6"/>
	<stop  offset="1" style="stop-color:#00A2B2"/>
</linearGradient>
<path fill="url(#SVGID_23_)" d="M4.1,22.3l4,17.4l-1.9,2.8c0,0-1.9-6.2-2.1-10.1C3.8,28.6,4.1,22.3,4.1,22.3z"/>
<linearGradient id="SVGID_24_" gradientUnits="userSpaceOnUse" x1="9.9921" y1="43.4881" x2="5.7217" y2="43.4881">
	<stop  offset="0" style="stop-color:#FFFFFF"/>
	<stop  offset="0.658" style="stop-color:#30B8C6"/>
	<stop  offset="1" style="stop-color:#00A2B2"/>
</linearGradient>
<polygon fill="url(#SVGID_24_)" points="8.4,40.6 9.3,43.6 7.3,46.3 6.4,43.6 "/>
<linearGradient id="SVGID_25_" gradientUnits="userSpaceOnUse" x1="6.9155" y1="47.3315" x2="3.9467" y2="47.3315">
	<stop  offset="0" style="stop-color:#FFFFFF"/>
	<stop  offset="0.658" style="stop-color:#30B8C6"/>
	<stop  offset="1" style="stop-color:#00A2B2"/>
</linearGradient>
<polygon fill="url(#SVGID_25_)" points="4.7,46.2 5.4,45 6.2,48.6 5.3,49.6 "/>
<linearGradient id="SVGID_26_" gradientUnits="userSpaceOnUse" x1="5.7324" y1="31.4749" x2="0.6331" y2="31.4749">
	<stop  offset="0" style="stop-color:#FFFFFF"/>
	<stop  offset="0.658" style="stop-color:#30B8C6"/>
	<stop  offset="1" style="stop-color:#00A2B2"/>
</linearGradient>
<path fill="url(#SVGID_26_)" d="M4.3,45.3c0,0-1.8-8-2.4-12.8c-0.6-4.7-0.5-14.8-0.5-14.8l0.9,0.8c0,0-0.2,10.8,0.4,15.5
	C3.4,38.8,5,44.4,5,44.4L4.3,45.3z"/>
<path fill="#00A2B2" d="M22.5,19.9L23,18c0,0,1.3-0.1,2.5-0.1c0,0,0,0.1-0.5,1.1L22.5,19.9z"/>
<linearGradient id="SVGID_27_" gradientUnits="userSpaceOnUse" x1="29.2843" y1="4.9501" x2="32.2284" y2="4.9501" gradientTransform="matrix(1 0 0 1 0.5249 -0.7637)">
	<stop  offset="0" style="stop-color:#FFFFFF"/>
	<stop  offset="0.658" style="stop-color:#30B8C6"/>
	<stop  offset="1" style="stop-color:#00A2B2"/>
</linearGradient>
<polygon fill="url(#SVGID_27_)" points="31.2,0 30,2.6 29.9,8 29.8,8.4 32.6,0 "/>
<path fill="#00A2B2" d="M48.6,12.6c0,0.8,0.6,1.1,1.4,1c0.8-0.2,2.6-1,3.5-1s2.6-0.3,4.8,1.9c2.2,2.3,1.9,3.8,2.1,3.8
	c0.2,0,0.6-1,0.2-1.8c-0.3-0.7-0.3-2.9-4.3-4.7c-4-1.8-4.7-0.7-5.8-0.5C49.4,11.6,48.6,12.6,48.6,12.6z"/>
</svg>
