<?xml version="1.0" encoding="utf-8"?>
<!-- Generator: Adobe Illustrator 18.1.1, SVG Export Plug-In . SVG Version: 6.00 Build 0)  -->
<svg version="1.1" id="Layer_1" xmlns="http://www.w3.org/2000/svg" xmlns:xlink="http://www.w3.org/1999/xlink" x="0px" y="0px"
	 viewBox="0 0 65.7 10.4" enable-background="new 0 0 65.7 10.4" xml:space="preserve">
<g>
	<path fill="#00A2B2" d="M5.1,3.6C5.1,2.7,5,1.8,5,1.1h0C4.8,1.7,4.5,2.5,4.3,3.3l-1,2.8H2.6l-1-2.8C1.4,2.5,1.2,1.7,1,1.1h0
		c0,0.7-0.1,1.7-0.1,2.6L0.7,6.1H0l0.4-5.8h1l1,2.8C2.6,3.8,2.8,4.5,3,5.1h0c0.2-0.6,0.4-1.2,0.6-1.9l1-2.8h1L6,6.1H5.2L5.1,3.6z"/>
	<path fill="#00A2B2" d="M10.2,5.1c0,0.4,0,0.7,0.1,1H9.6L9.5,5.6h0C9.3,5.9,8.8,6.2,8.2,6.2C7.3,6.2,6.9,5.6,6.9,5
		c0-1,0.9-1.6,2.5-1.5V3.4c0-0.3-0.1-1-1-1c-0.4,0-0.8,0.1-1.1,0.3L7.2,2.2C7.5,2,8.1,1.8,8.6,1.8c1.3,0,1.6,0.9,1.6,1.7V5.1z
		 M9.5,4C8.6,4,7.7,4.1,7.7,4.9c0,0.5,0.3,0.7,0.7,0.7c0.6,0,0.9-0.3,1-0.7c0-0.1,0-0.2,0-0.2V4z"/>
	<path fill="#00A2B2" d="M11.7,1.9l0.9,2.5c0.1,0.3,0.2,0.6,0.3,0.9h0C12.9,5,13,4.7,13.1,4.4L14,1.9h0.8l-1.2,3
		c-0.5,1.4-0.9,2.2-1.4,2.6C11.8,7.8,11.4,8,11.2,8l-0.2-0.6c0.2-0.1,0.4-0.2,0.7-0.4c0.2-0.2,0.5-0.5,0.6-0.8
		c0-0.1,0.1-0.1,0.1-0.2c0,0,0-0.1-0.1-0.2l-1.6-3.8H11.7z"/>
	<path fill="#00A2B2" d="M17.4,0.3h0.8v5.2h2.5v0.6h-3.3V0.3z"/>
	<path fill="#00A2B2" d="M21.6,0h0.8v6.1h-0.8V0z"/>
	<path fill="#00A2B2" d="M25,6.2c-1.3,0-2.2-0.8-2.2-2.1c0-1.4,1-2.2,2.3-2.2c1.3,0,2.3,0.9,2.3,2.1C27.4,5.5,26.1,6.2,25,6.2
		L25,6.2z M25.1,5.6c0.8,0,1.4-0.7,1.4-1.6c0-0.7-0.4-1.6-1.4-1.6c-1,0-1.4,0.8-1.4,1.6C23.6,4.9,24.2,5.6,25.1,5.6L25.1,5.6z"/>
	<path fill="#00A2B2" d="M28.7,1.9l0.9,2.5c0.1,0.3,0.2,0.6,0.3,0.9h0C30,5,30.1,4.7,30.2,4.4L31,1.9h0.8l-1.2,3
		c-0.5,1.4-0.9,2.2-1.4,2.6C28.8,7.8,28.5,8,28.3,8l-0.2-0.6c0.2-0.1,0.4-0.2,0.7-0.4c0.2-0.2,0.5-0.5,0.6-0.8
		c0-0.1,0.1-0.1,0.1-0.2c0,0,0-0.1-0.1-0.2l-1.6-3.8H28.7z"/>
	<path fill="#00A2B2" d="M36.1,0v5c0,0.4,0,0.8,0,1.1h-0.7l0-0.7h0c-0.2,0.5-0.7,0.8-1.4,0.8c-1,0-1.8-0.8-1.8-2.1
		c0-1.4,0.9-2.2,1.9-2.2c0.7,0,1.1,0.3,1.3,0.6h0V0H36.1z M35.3,3.6c0-0.1,0-0.2,0-0.3c-0.1-0.5-0.5-0.9-1.1-0.9
		c-0.8,0-1.3,0.7-1.3,1.6c0,0.8,0.4,1.5,1.2,1.5c0.5,0,1-0.3,1.1-0.9c0-0.1,0-0.2,0-0.3V3.6z"/>
	<path fill="#00A2B2" d="M42.9,5.5c0,1-0.2,1.5-0.6,1.9c-0.4,0.4-1,0.5-1.5,0.5c-0.5,0-1.1-0.1-1.4-0.3L39.6,7
		c0.3,0.2,0.7,0.3,1.2,0.3c0.8,0,1.4-0.4,1.4-1.5V5.4h0c-0.2,0.4-0.7,0.7-1.3,0.7c-1,0-1.8-0.9-1.8-2c0-1.4,0.9-2.2,1.9-2.2
		c0.7,0,1.1,0.4,1.3,0.7h0l0-0.6H43c0,0.3,0,0.6,0,1.1V5.5z M42.2,3.6c0-0.1,0-0.2,0-0.3C42,2.8,41.6,2.4,41,2.4
		c-0.7,0-1.3,0.6-1.3,1.6c0,0.8,0.4,1.5,1.2,1.5c0.5,0,0.9-0.3,1.1-0.8c0-0.1,0.1-0.3,0.1-0.4V3.6z"/>
	<path fill="#00A2B2" d="M44.2,3.2c0-0.5,0-0.9,0-1.3h0.7l0,0.8h0c0.2-0.6,0.7-0.9,1.2-0.9c0.1,0,0.1,0,0.2,0v0.7
		c-0.1,0-0.2,0-0.3,0c-0.5,0-0.9,0.4-1,1c0,0.1,0,0.2,0,0.4v2.2h-0.8L44.2,3.2z"/>
	<path fill="#00A2B2" d="M48.8,6.2c-1.1,0-2-0.8-2-2.1c0-1.4,0.9-2.2,2.1-2.2c1.2,0,2,0.9,2,2.1C50.9,5.5,49.8,6.2,48.8,6.2
		L48.8,6.2z M48.8,5.6c0.7,0,1.3-0.7,1.3-1.6c0-0.7-0.4-1.6-1.3-1.6c-0.9,0-1.3,0.8-1.3,1.6C47.5,4.9,48.1,5.6,48.8,5.6L48.8,5.6z"
		/>
	<path fill="#00A2B2" d="M55.4,5c0,0.4,0,0.8,0,1.1h-0.7l0-0.7h0c-0.2,0.3-0.6,0.8-1.4,0.8c-0.7,0-1.5-0.4-1.5-1.8V1.9h0.8v2.3
		c0,0.8,0.3,1.3,0.9,1.3c0.5,0,0.9-0.4,1-0.7c0-0.1,0.1-0.2,0.1-0.4V1.9h0.8V5z"/>
	<path fill="#00A2B2" d="M56.7,3.3c0-0.5,0-1,0-1.4h0.7l0,0.7h0c0.3-0.5,0.8-0.8,1.5-0.8c1,0,1.8,0.8,1.8,2.1c0,1.5-0.9,2.2-1.9,2.2
		c-0.6,0-1-0.2-1.3-0.7h0v2.3h-0.8V3.3z M57.5,4.4c0,0.1,0,0.2,0,0.3c0.1,0.5,0.6,0.9,1.1,0.9C59.5,5.6,60,4.9,60,4
		c0-0.8-0.4-1.5-1.2-1.5c-0.5,0-1,0.4-1.2,0.9c0,0.1,0,0.2,0,0.3V4.4z"/>
</g>
</svg>
